<svg width="24" height="24" viewBox="0 0 24 24" fill="none" xmlns="http://www.w3.org/2000/svg">
<path d="M15.6813 6.48816L3.96966 18.1998L3.20382 20.8122L5.76308 20.0723L17.5136 8.32175L15.6813 6.48816ZM17.6795 4.48999L19.5118 6.32229L21.2197 4.61439C21.3412 4.49289 21.4094 4.32812 21.4094 4.15632C21.4094 3.98451 21.3412 3.81974 21.2197 3.69824L20.3022 2.78209C20.1807 2.66063 20.016 2.59239 19.8442 2.59239C19.6724 2.59239 19.5076 2.66063 19.3861 2.78209L17.6808 4.48999H17.6795ZM22.1358 0.949796L23.052 1.86595C23.6593 2.47345 24.0005 3.2973 24.0005 4.15632C24.0005 5.01533 23.6593 5.83918 23.052 6.44669L7.1237 22.3763L1.65531 23.9572C1.43241 24.0215 1.19635 24.0247 0.971769 23.9666C0.747186 23.9085 0.542316 23.7912 0.378549 23.6269C0.214782 23.4626 0.0981213 23.2573 0.040747 23.0326C-0.0166272 22.8078 -0.0126114 22.5718 0.052375 22.3491L1.66957 16.8353L17.5564 0.948501C18.1639 0.341176 18.9877 0 19.8468 0C20.7058 0 21.5296 0.341176 22.1371 0.948501L22.1358 0.949796Z" fill="#878787"/>
</svg>
