<svg width="48" height="48" viewBox="0 0 48 48" fill="none" xmlns="http://www.w3.org/2000/svg">
<circle cx="24" cy="24" r="23" fill="#D9D9D9" stroke="black" stroke-width="2"/>
<path d="M28.79 12.0362C27.5737 10.7231 25.875 10 24 10C22.115 10 20.4106 10.7187 19.2 12.0237C17.9762 13.3431 17.38 15.1363 17.52 17.0725C17.7975 20.8925 20.7044 24 24 24C27.2956 24 30.1975 20.8931 30.4794 17.0737C30.6212 15.155 30.0212 13.3656 28.79 12.0362ZM35 38H13C12.712 38.0037 12.4269 37.9433 12.1652 37.8229C11.9036 37.7026 11.6721 37.5254 11.4875 37.3044C11.0812 36.8187 10.9175 36.1556 11.0387 35.485C11.5662 32.5588 13.2125 30.1006 15.8 28.375C18.0987 26.8431 21.0106 26 24 26C26.9894 26 29.9012 26.8437 32.2 28.375C34.7875 30.1 36.4337 32.5581 36.9612 35.4844C37.0825 36.155 36.9187 36.8181 36.5125 37.3037C36.328 37.5249 36.0965 37.7022 35.8348 37.8226C35.5732 37.9431 35.288 38.0037 35 38Z" fill="#1D1D1D"/>
</svg>
