<svg width="64" height="64" viewBox="0 0 64 64" fill="none" xmlns="http://www.w3.org/2000/svg">
<g clip-path="url(#clip0_597_778)">
<rect width="64" height="64" rx="10" fill="#2E9DF4"/>
</g>
<rect x="2" y="2" width="60" height="60" rx="8" stroke="#000D61" stroke-width="4"/>
<path d="M21.5 27.2061C21.5 26.9383 21.5717 26.6754 21.7076 26.4447C21.8435 26.214 22.0387 26.0239 22.2728 25.8941C22.507 25.7643 22.7717 25.6995 23.0394 25.7066C23.307 25.7136 23.5679 25.7921 23.795 25.9341L31.4645 30.7281C31.6802 30.8629 31.8581 31.0504 31.9815 31.2729C32.1048 31.4954 32.1695 31.7456 32.1695 32.0001C32.1695 32.2545 32.1048 32.5047 31.9815 32.7272C31.8581 32.9497 31.6802 33.1372 31.4645 33.2721L23.795 38.0661C23.5679 38.208 23.307 38.2865 23.0394 38.2935C22.7717 38.3006 22.507 38.2358 22.2728 38.106C22.0387 37.9762 21.8435 37.7861 21.7076 37.5554C21.5717 37.3247 21.5 37.0618 21.5 36.7941V27.2061ZM40.25 26.7501C40.25 26.5511 40.329 26.3604 40.4697 26.2197C40.6103 26.0791 40.8011 26.0001 41 26.0001H41.75C41.9489 26.0001 42.1397 26.0791 42.2803 26.2197C42.421 26.3604 42.5 26.5511 42.5 26.7501V37.2501C42.5 37.449 42.421 37.6397 42.2803 37.7804C42.1397 37.921 41.9489 38.0001 41.75 38.0001H41C40.8011 38.0001 40.6103 37.921 40.4697 37.7804C40.329 37.6397 40.25 37.449 40.25 37.2501V26.7501ZM35.75 26.0001C35.5511 26.0001 35.3603 26.0791 35.2197 26.2197C35.079 26.3604 35 26.5511 35 26.7501V37.2501C35 37.449 35.079 37.6397 35.2197 37.7804C35.3603 37.921 35.5511 38.0001 35.75 38.0001H36.5C36.6989 38.0001 36.8897 37.921 37.0303 37.7804C37.171 37.6397 37.25 37.449 37.25 37.2501V26.7501C37.25 26.5511 37.171 26.3604 37.0303 26.2197C36.8897 26.0791 36.6989 26.0001 36.5 26.0001H35.75Z" fill="#000D61"/>
<defs>
<clipPath id="clip0_597_778">
<rect width="64" height="64" rx="10" fill="white"/>
</clipPath>
</defs>
</svg>
