<svg width="679" height="89" viewBox="0 0 679 89" fill="none" xmlns="http://www.w3.org/2000/svg">
<mask id="path-1-outside-1_76_12420" maskUnits="userSpaceOnUse" x="6" y="6" width="673" height="83" fill="black">
<rect fill="white" x="6" y="6" width="673" height="83"/>
<path d="M57.56 12.152C59.032 12.152 60.12 12.216 60.824 12.344C61.592 12.408 62.424 12.696 63.32 13.208C64.28 13.72 64.952 14.584 65.336 15.8C65.72 17.016 65.912 18.648 65.912 20.696C65.912 22.744 65.72 24.376 65.336 25.592C64.952 26.808 64.28 27.672 63.32 28.184C62.36 28.632 61.496 28.92 60.728 29.048C60.024 29.112 58.904 29.144 57.368 29.144H27.992V38.84H46.904C48.44 38.84 49.56 38.904 50.264 39.032C51.032 39.096 51.896 39.384 52.856 39.896C54.52 40.856 55.352 43.384 55.352 47.48C55.352 51.96 54.136 54.616 51.704 55.448C50.68 55.768 49.048 55.928 46.808 55.928H27.992V74.072C27.992 75.608 27.928 76.728 27.8 77.432C27.736 78.136 27.448 78.968 26.936 79.928C26.04 81.656 23.544 82.52 19.448 82.52C14.968 82.52 12.344 81.304 11.576 78.872C11.192 77.848 11 76.216 11 73.976V20.6C11 17.336 11.608 15.128 12.824 13.976C14.04 12.76 16.344 12.152 19.736 12.152H57.56Z"/>
<path d="M74.045 20.6C74.045 19.128 74.077 18.04 74.141 17.336C74.269 16.568 74.589 15.704 75.101 14.744C75.997 13.016 78.493 12.152 82.589 12.152C87.069 12.152 89.725 13.336 90.557 15.704C90.877 16.792 91.037 18.456 91.037 20.696V74.072C91.037 75.608 90.973 76.728 90.845 77.432C90.781 78.136 90.493 78.968 89.981 79.928C89.085 81.656 86.589 82.52 82.493 82.52C78.013 82.52 75.389 81.304 74.621 78.872C74.237 77.848 74.045 76.216 74.045 73.976V20.6Z"/>
<path d="M146.029 15.128C146.669 13.976 147.597 13.208 148.813 12.824C150.029 12.44 151.533 12.248 153.325 12.248C155.181 12.248 156.653 12.408 157.741 12.728C158.893 13.048 159.725 13.432 160.237 13.88C160.813 14.328 161.229 15 161.485 15.896C161.869 16.92 162.061 18.552 162.061 20.792V74.072C162.061 75.608 161.997 76.728 161.869 77.432C161.805 78.136 161.517 78.968 161.005 79.928C160.109 81.656 157.613 82.52 153.517 82.52C151.021 82.52 149.293 82.328 148.333 81.944C147.373 81.56 146.573 80.952 145.933 80.12C131.533 60.92 122.061 48.376 117.517 42.488V74.072C117.517 75.608 117.453 76.728 117.325 77.432C117.261 78.136 116.973 78.968 116.461 79.928C115.565 81.656 113.069 82.52 108.973 82.52C105.005 82.52 102.573 81.656 101.677 79.928C101.165 78.968 100.845 78.104 100.717 77.336C100.653 76.568 100.621 75.448 100.621 73.976V20.408C100.621 17.976 100.909 16.216 101.485 15.128C102.125 13.976 103.053 13.208 104.269 12.824C105.485 12.44 107.053 12.248 108.973 12.248C110.893 12.248 112.397 12.44 113.485 12.824C114.637 13.144 115.437 13.528 115.885 13.976C116.141 14.168 116.877 15 118.093 16.472C131.597 34.84 140.621 46.968 145.165 52.856V20.408C145.165 17.976 145.453 16.216 146.029 15.128Z"/>
<path d="M212.243 17.144L238.163 70.712C239.251 72.888 239.795 74.52 239.795 75.608C239.795 77.912 237.939 79.992 234.227 81.848C232.051 82.936 230.323 83.48 229.043 83.48C227.827 83.48 226.803 83.192 225.971 82.616C225.203 82.04 224.627 81.432 224.243 80.792C223.923 80.152 223.443 79.192 222.803 77.912L217.811 67.544H191.219L186.227 77.912C185.587 79.192 185.075 80.12 184.691 80.696C184.371 81.272 183.795 81.88 182.963 82.52C182.195 83.096 181.171 83.384 179.891 83.384C178.675 83.384 176.979 82.84 174.803 81.752C171.091 79.96 169.235 77.912 169.235 75.608C169.235 74.52 169.779 72.888 170.867 70.712L196.787 17.048C197.491 15.576 198.547 14.392 199.955 13.496C201.427 12.6 202.963 12.152 204.563 12.152C208.019 12.152 210.579 13.816 212.243 17.144ZM204.467 40.184L198.131 53.336H210.899L204.467 40.184Z"/>
<path d="M292.369 15.128C293.009 13.976 293.937 13.208 295.153 12.824C296.369 12.44 297.873 12.248 299.665 12.248C301.521 12.248 302.993 12.408 304.081 12.728C305.233 13.048 306.065 13.432 306.577 13.88C307.153 14.328 307.569 15 307.825 15.896C308.209 16.92 308.401 18.552 308.401 20.792V74.072C308.401 75.608 308.337 76.728 308.209 77.432C308.145 78.136 307.857 78.968 307.345 79.928C306.449 81.656 303.953 82.52 299.857 82.52C297.361 82.52 295.633 82.328 294.673 81.944C293.713 81.56 292.913 80.952 292.273 80.12C277.873 60.92 268.401 48.376 263.857 42.488V74.072C263.857 75.608 263.793 76.728 263.665 77.432C263.601 78.136 263.313 78.968 262.801 79.928C261.905 81.656 259.409 82.52 255.313 82.52C251.345 82.52 248.913 81.656 248.017 79.928C247.505 78.968 247.185 78.104 247.057 77.336C246.993 76.568 246.961 75.448 246.961 73.976V20.408C246.961 17.976 247.249 16.216 247.825 15.128C248.465 13.976 249.393 13.208 250.609 12.824C251.825 12.44 253.393 12.248 255.313 12.248C257.233 12.248 258.737 12.44 259.825 12.824C260.977 13.144 261.777 13.528 262.225 13.976C262.481 14.168 263.217 15 264.433 16.472C277.937 34.84 286.961 46.968 291.505 52.856V20.408C291.505 17.976 291.793 16.216 292.369 15.128Z"/>
<path d="M361.943 64.088L363.671 62.84C365.847 61.56 367.383 60.92 368.279 60.92C370.263 60.92 372.407 62.712 374.711 66.296C376.119 68.536 376.823 70.328 376.823 71.672C376.823 73.016 376.375 74.136 375.479 75.032C374.647 75.928 373.655 76.728 372.503 77.432C371.351 78.136 370.231 78.808 369.143 79.448C368.119 80.088 365.975 80.92 362.711 81.944C359.447 82.968 356.279 83.48 353.207 83.48C350.199 83.48 347.127 83.096 343.991 82.328C340.919 81.496 337.719 80.152 334.391 78.296C331.127 76.376 328.183 74.072 325.559 71.384C322.935 68.632 320.759 65.144 319.031 60.92C317.367 56.632 316.535 51.992 316.535 47C316.535 42.008 317.367 37.496 319.031 33.464C320.695 29.368 322.807 26.008 325.367 23.384C327.991 20.696 330.967 18.456 334.295 16.664C340.567 13.208 346.871 11.48 353.207 11.48C356.215 11.48 359.255 11.96 362.327 12.92C365.463 13.816 367.831 14.744 369.431 15.704L371.735 17.048C372.887 17.752 373.783 18.328 374.423 18.776C376.087 20.12 376.919 21.656 376.919 23.384C376.919 25.048 376.247 26.808 374.903 28.664C372.407 32.12 370.167 33.848 368.183 33.848C367.031 33.848 365.399 33.144 363.287 31.736C360.599 29.56 357.015 28.472 352.535 28.472C348.375 28.472 344.279 29.912 340.247 32.792C338.327 34.2 336.727 36.184 335.447 38.744C334.167 41.304 333.527 44.216 333.527 47.48C333.527 50.68 334.167 53.56 335.447 56.12C336.727 58.68 338.359 60.696 340.343 62.168C344.247 64.984 348.311 66.392 352.535 66.392C354.519 66.392 356.375 66.136 358.103 65.624C359.895 65.112 361.175 64.6 361.943 64.088Z"/>
<path d="M385.051 20.6C385.051 19.128 385.083 18.04 385.147 17.336C385.275 16.568 385.595 15.704 386.107 14.744C387.003 13.016 389.499 12.152 393.595 12.152C398.075 12.152 400.731 13.336 401.563 15.704C401.883 16.792 402.043 18.456 402.043 20.696V74.072C402.043 75.608 401.979 76.728 401.851 77.432C401.787 78.136 401.499 78.968 400.987 79.928C400.091 81.656 397.595 82.52 393.499 82.52C389.019 82.52 386.395 81.304 385.627 78.872C385.243 77.848 385.051 76.216 385.051 73.976V20.6Z"/>
<path d="M457.035 15.128C457.675 13.976 458.604 13.208 459.82 12.824C461.036 12.44 462.54 12.248 464.332 12.248C466.188 12.248 467.659 12.408 468.747 12.728C469.9 13.048 470.732 13.432 471.243 13.88C471.819 14.328 472.236 15 472.492 15.896C472.876 16.92 473.068 18.552 473.068 20.792V74.072C473.068 75.608 473.004 76.728 472.876 77.432C472.812 78.136 472.523 78.968 472.012 79.928C471.116 81.656 468.62 82.52 464.523 82.52C462.027 82.52 460.299 82.328 459.34 81.944C458.38 81.56 457.58 80.952 456.94 80.12C442.54 60.92 433.068 48.376 428.523 42.488V74.072C428.523 75.608 428.46 76.728 428.332 77.432C428.268 78.136 427.979 78.968 427.467 79.928C426.572 81.656 424.076 82.52 419.979 82.52C416.012 82.52 413.579 81.656 412.684 79.928C412.172 78.968 411.852 78.104 411.724 77.336C411.66 76.568 411.628 75.448 411.628 73.976V20.408C411.628 17.976 411.916 16.216 412.492 15.128C413.132 13.976 414.06 13.208 415.276 12.824C416.492 12.44 418.059 12.248 419.979 12.248C421.9 12.248 423.404 12.44 424.492 12.824C425.644 13.144 426.444 13.528 426.892 13.976C427.148 14.168 427.884 15 429.1 16.472C442.604 34.84 451.628 46.968 456.172 52.856V20.408C456.172 17.976 456.46 16.216 457.035 15.128Z"/>
<path d="M526.129 14.744C526.641 13.784 527.505 13.112 528.721 12.728C529.937 12.344 531.473 12.152 533.329 12.152C535.185 12.152 536.657 12.312 537.745 12.632C538.833 12.952 539.665 13.336 540.241 13.784C540.817 14.232 541.265 14.872 541.585 15.704C541.905 16.792 542.065 18.456 542.065 20.696V73.976C542.065 75.448 542.001 76.568 541.873 77.336C541.809 78.04 541.521 78.872 541.009 79.832C540.113 81.56 537.617 82.424 533.521 82.424C529.041 82.424 526.417 81.24 525.649 78.872C525.265 77.784 525.073 76.12 525.073 73.88V54.392H499.633V73.976C499.633 75.448 499.569 76.568 499.441 77.336C499.377 78.04 499.089 78.872 498.577 79.832C497.681 81.56 495.185 82.424 491.089 82.424C486.609 82.424 483.985 81.24 483.217 78.872C482.833 77.784 482.641 76.12 482.641 73.88V20.6C482.641 19.128 482.673 18.04 482.737 17.336C482.865 16.568 483.185 15.704 483.697 14.744C484.593 13.016 487.089 12.152 491.185 12.152C495.665 12.152 498.321 13.336 499.153 15.704C499.473 16.792 499.633 18.456 499.633 20.696V40.28H525.073V20.6C525.073 19.128 525.105 18.04 525.169 17.336C525.297 16.568 525.617 15.704 526.129 14.744Z"/>
<path d="M592.294 17.144L618.214 70.712C619.302 72.888 619.846 74.52 619.846 75.608C619.846 77.912 617.99 79.992 614.278 81.848C612.102 82.936 610.374 83.48 609.094 83.48C607.878 83.48 606.854 83.192 606.022 82.616C605.254 82.04 604.678 81.432 604.294 80.792C603.974 80.152 603.494 79.192 602.854 77.912L597.862 67.544H571.27L566.278 77.912C565.638 79.192 565.126 80.12 564.742 80.696C564.422 81.272 563.846 81.88 563.014 82.52C562.246 83.096 561.222 83.384 559.942 83.384C558.726 83.384 557.03 82.84 554.854 81.752C551.142 79.96 549.286 77.912 549.286 75.608C549.286 74.52 549.83 72.888 550.918 70.712L576.838 17.048C577.542 15.576 578.598 14.392 580.006 13.496C581.478 12.6 583.014 12.152 584.614 12.152C588.07 12.152 590.63 13.816 592.294 17.144ZM584.518 40.184L578.182 53.336H590.95L584.518 40.184Z"/>
<path d="M625.162 72.632C623.498 70.584 622.666 68.76 622.666 67.16C622.666 65.496 624.042 63.32 626.794 60.632C628.394 59.096 630.09 58.328 631.882 58.328C633.674 58.328 636.17 59.928 639.37 63.128C640.266 64.216 641.546 65.272 643.21 66.296C644.874 67.256 646.41 67.736 647.818 67.736C653.77 67.736 656.746 65.304 656.746 60.44C656.746 58.968 655.914 57.752 654.25 56.792C652.65 55.768 650.634 55.032 648.202 54.584C645.77 54.136 643.146 53.432 640.33 52.472C637.514 51.448 634.89 50.264 632.458 48.92C630.026 47.576 627.978 45.464 626.314 42.584C624.714 39.64 623.914 36.12 623.914 32.024C623.914 26.392 625.994 21.496 630.154 17.336C634.378 13.112 640.106 11 647.338 11C651.178 11 654.666 11.512 657.802 12.536C661.002 13.496 663.21 14.488 664.426 15.512L666.826 17.336C668.81 19.192 669.802 20.76 669.802 22.04C669.802 23.32 669.034 25.08 667.498 27.32C665.322 30.52 663.082 32.12 660.778 32.12C659.434 32.12 657.77 31.48 655.786 30.2C655.594 30.072 655.21 29.752 654.634 29.24C654.122 28.728 653.642 28.312 653.194 27.992C651.85 27.16 650.122 26.744 648.01 26.744C645.962 26.744 644.234 27.256 642.826 28.28C641.482 29.24 640.81 30.616 640.81 32.408C640.81 34.136 641.61 35.544 643.21 36.632C644.874 37.72 646.922 38.456 649.354 38.84C651.786 39.224 654.442 39.832 657.322 40.664C660.202 41.432 662.858 42.392 665.29 43.544C667.722 44.696 669.738 46.712 671.338 49.592C673.002 52.408 673.834 55.896 673.834 60.056C673.834 64.216 673.002 67.896 671.338 71.096C669.674 74.232 667.498 76.664 664.81 78.392C659.626 81.784 654.09 83.48 648.202 83.48C645.194 83.48 642.346 83.128 639.658 82.424C636.97 81.656 634.794 80.728 633.13 79.64C629.738 77.592 627.37 75.608 626.026 73.688L625.162 72.632Z"/>
</mask>
<path d="M57.56 12.152C59.032 12.152 60.12 12.216 60.824 12.344C61.592 12.408 62.424 12.696 63.32 13.208C64.28 13.72 64.952 14.584 65.336 15.8C65.72 17.016 65.912 18.648 65.912 20.696C65.912 22.744 65.72 24.376 65.336 25.592C64.952 26.808 64.28 27.672 63.32 28.184C62.36 28.632 61.496 28.92 60.728 29.048C60.024 29.112 58.904 29.144 57.368 29.144H27.992V38.84H46.904C48.44 38.84 49.56 38.904 50.264 39.032C51.032 39.096 51.896 39.384 52.856 39.896C54.52 40.856 55.352 43.384 55.352 47.48C55.352 51.96 54.136 54.616 51.704 55.448C50.68 55.768 49.048 55.928 46.808 55.928H27.992V74.072C27.992 75.608 27.928 76.728 27.8 77.432C27.736 78.136 27.448 78.968 26.936 79.928C26.04 81.656 23.544 82.52 19.448 82.52C14.968 82.52 12.344 81.304 11.576 78.872C11.192 77.848 11 76.216 11 73.976V20.6C11 17.336 11.608 15.128 12.824 13.976C14.04 12.76 16.344 12.152 19.736 12.152H57.56Z" fill="#1D1D1D"/>
<path d="M74.045 20.6C74.045 19.128 74.077 18.04 74.141 17.336C74.269 16.568 74.589 15.704 75.101 14.744C75.997 13.016 78.493 12.152 82.589 12.152C87.069 12.152 89.725 13.336 90.557 15.704C90.877 16.792 91.037 18.456 91.037 20.696V74.072C91.037 75.608 90.973 76.728 90.845 77.432C90.781 78.136 90.493 78.968 89.981 79.928C89.085 81.656 86.589 82.52 82.493 82.52C78.013 82.52 75.389 81.304 74.621 78.872C74.237 77.848 74.045 76.216 74.045 73.976V20.6Z" fill="#1D1D1D"/>
<path d="M146.029 15.128C146.669 13.976 147.597 13.208 148.813 12.824C150.029 12.44 151.533 12.248 153.325 12.248C155.181 12.248 156.653 12.408 157.741 12.728C158.893 13.048 159.725 13.432 160.237 13.88C160.813 14.328 161.229 15 161.485 15.896C161.869 16.92 162.061 18.552 162.061 20.792V74.072C162.061 75.608 161.997 76.728 161.869 77.432C161.805 78.136 161.517 78.968 161.005 79.928C160.109 81.656 157.613 82.52 153.517 82.52C151.021 82.52 149.293 82.328 148.333 81.944C147.373 81.56 146.573 80.952 145.933 80.12C131.533 60.92 122.061 48.376 117.517 42.488V74.072C117.517 75.608 117.453 76.728 117.325 77.432C117.261 78.136 116.973 78.968 116.461 79.928C115.565 81.656 113.069 82.52 108.973 82.52C105.005 82.52 102.573 81.656 101.677 79.928C101.165 78.968 100.845 78.104 100.717 77.336C100.653 76.568 100.621 75.448 100.621 73.976V20.408C100.621 17.976 100.909 16.216 101.485 15.128C102.125 13.976 103.053 13.208 104.269 12.824C105.485 12.44 107.053 12.248 108.973 12.248C110.893 12.248 112.397 12.44 113.485 12.824C114.637 13.144 115.437 13.528 115.885 13.976C116.141 14.168 116.877 15 118.093 16.472C131.597 34.84 140.621 46.968 145.165 52.856V20.408C145.165 17.976 145.453 16.216 146.029 15.128Z" fill="#1D1D1D"/>
<path d="M212.243 17.144L238.163 70.712C239.251 72.888 239.795 74.52 239.795 75.608C239.795 77.912 237.939 79.992 234.227 81.848C232.051 82.936 230.323 83.48 229.043 83.48C227.827 83.48 226.803 83.192 225.971 82.616C225.203 82.04 224.627 81.432 224.243 80.792C223.923 80.152 223.443 79.192 222.803 77.912L217.811 67.544H191.219L186.227 77.912C185.587 79.192 185.075 80.12 184.691 80.696C184.371 81.272 183.795 81.88 182.963 82.52C182.195 83.096 181.171 83.384 179.891 83.384C178.675 83.384 176.979 82.84 174.803 81.752C171.091 79.96 169.235 77.912 169.235 75.608C169.235 74.52 169.779 72.888 170.867 70.712L196.787 17.048C197.491 15.576 198.547 14.392 199.955 13.496C201.427 12.6 202.963 12.152 204.563 12.152C208.019 12.152 210.579 13.816 212.243 17.144ZM204.467 40.184L198.131 53.336H210.899L204.467 40.184Z" fill="#1D1D1D"/>
<path d="M292.369 15.128C293.009 13.976 293.937 13.208 295.153 12.824C296.369 12.44 297.873 12.248 299.665 12.248C301.521 12.248 302.993 12.408 304.081 12.728C305.233 13.048 306.065 13.432 306.577 13.88C307.153 14.328 307.569 15 307.825 15.896C308.209 16.92 308.401 18.552 308.401 20.792V74.072C308.401 75.608 308.337 76.728 308.209 77.432C308.145 78.136 307.857 78.968 307.345 79.928C306.449 81.656 303.953 82.52 299.857 82.52C297.361 82.52 295.633 82.328 294.673 81.944C293.713 81.56 292.913 80.952 292.273 80.12C277.873 60.92 268.401 48.376 263.857 42.488V74.072C263.857 75.608 263.793 76.728 263.665 77.432C263.601 78.136 263.313 78.968 262.801 79.928C261.905 81.656 259.409 82.52 255.313 82.52C251.345 82.52 248.913 81.656 248.017 79.928C247.505 78.968 247.185 78.104 247.057 77.336C246.993 76.568 246.961 75.448 246.961 73.976V20.408C246.961 17.976 247.249 16.216 247.825 15.128C248.465 13.976 249.393 13.208 250.609 12.824C251.825 12.44 253.393 12.248 255.313 12.248C257.233 12.248 258.737 12.44 259.825 12.824C260.977 13.144 261.777 13.528 262.225 13.976C262.481 14.168 263.217 15 264.433 16.472C277.937 34.84 286.961 46.968 291.505 52.856V20.408C291.505 17.976 291.793 16.216 292.369 15.128Z" fill="#1D1D1D"/>
<path d="M361.943 64.088L363.671 62.84C365.847 61.56 367.383 60.92 368.279 60.92C370.263 60.92 372.407 62.712 374.711 66.296C376.119 68.536 376.823 70.328 376.823 71.672C376.823 73.016 376.375 74.136 375.479 75.032C374.647 75.928 373.655 76.728 372.503 77.432C371.351 78.136 370.231 78.808 369.143 79.448C368.119 80.088 365.975 80.92 362.711 81.944C359.447 82.968 356.279 83.48 353.207 83.48C350.199 83.48 347.127 83.096 343.991 82.328C340.919 81.496 337.719 80.152 334.391 78.296C331.127 76.376 328.183 74.072 325.559 71.384C322.935 68.632 320.759 65.144 319.031 60.92C317.367 56.632 316.535 51.992 316.535 47C316.535 42.008 317.367 37.496 319.031 33.464C320.695 29.368 322.807 26.008 325.367 23.384C327.991 20.696 330.967 18.456 334.295 16.664C340.567 13.208 346.871 11.48 353.207 11.48C356.215 11.48 359.255 11.96 362.327 12.92C365.463 13.816 367.831 14.744 369.431 15.704L371.735 17.048C372.887 17.752 373.783 18.328 374.423 18.776C376.087 20.12 376.919 21.656 376.919 23.384C376.919 25.048 376.247 26.808 374.903 28.664C372.407 32.12 370.167 33.848 368.183 33.848C367.031 33.848 365.399 33.144 363.287 31.736C360.599 29.56 357.015 28.472 352.535 28.472C348.375 28.472 344.279 29.912 340.247 32.792C338.327 34.2 336.727 36.184 335.447 38.744C334.167 41.304 333.527 44.216 333.527 47.48C333.527 50.68 334.167 53.56 335.447 56.12C336.727 58.68 338.359 60.696 340.343 62.168C344.247 64.984 348.311 66.392 352.535 66.392C354.519 66.392 356.375 66.136 358.103 65.624C359.895 65.112 361.175 64.6 361.943 64.088Z" fill="#1D1D1D"/>
<path d="M385.051 20.6C385.051 19.128 385.083 18.04 385.147 17.336C385.275 16.568 385.595 15.704 386.107 14.744C387.003 13.016 389.499 12.152 393.595 12.152C398.075 12.152 400.731 13.336 401.563 15.704C401.883 16.792 402.043 18.456 402.043 20.696V74.072C402.043 75.608 401.979 76.728 401.851 77.432C401.787 78.136 401.499 78.968 400.987 79.928C400.091 81.656 397.595 82.52 393.499 82.52C389.019 82.52 386.395 81.304 385.627 78.872C385.243 77.848 385.051 76.216 385.051 73.976V20.6Z" fill="#1D1D1D"/>
<path d="M457.035 15.128C457.675 13.976 458.604 13.208 459.82 12.824C461.036 12.44 462.54 12.248 464.332 12.248C466.188 12.248 467.659 12.408 468.747 12.728C469.9 13.048 470.732 13.432 471.243 13.88C471.819 14.328 472.236 15 472.492 15.896C472.876 16.92 473.068 18.552 473.068 20.792V74.072C473.068 75.608 473.004 76.728 472.876 77.432C472.812 78.136 472.523 78.968 472.012 79.928C471.116 81.656 468.62 82.52 464.523 82.52C462.027 82.52 460.299 82.328 459.34 81.944C458.38 81.56 457.58 80.952 456.94 80.12C442.54 60.92 433.068 48.376 428.523 42.488V74.072C428.523 75.608 428.46 76.728 428.332 77.432C428.268 78.136 427.979 78.968 427.467 79.928C426.572 81.656 424.076 82.52 419.979 82.52C416.012 82.52 413.579 81.656 412.684 79.928C412.172 78.968 411.852 78.104 411.724 77.336C411.66 76.568 411.628 75.448 411.628 73.976V20.408C411.628 17.976 411.916 16.216 412.492 15.128C413.132 13.976 414.06 13.208 415.276 12.824C416.492 12.44 418.059 12.248 419.979 12.248C421.9 12.248 423.404 12.44 424.492 12.824C425.644 13.144 426.444 13.528 426.892 13.976C427.148 14.168 427.884 15 429.1 16.472C442.604 34.84 451.628 46.968 456.172 52.856V20.408C456.172 17.976 456.46 16.216 457.035 15.128Z" fill="#1D1D1D"/>
<path d="M526.129 14.744C526.641 13.784 527.505 13.112 528.721 12.728C529.937 12.344 531.473 12.152 533.329 12.152C535.185 12.152 536.657 12.312 537.745 12.632C538.833 12.952 539.665 13.336 540.241 13.784C540.817 14.232 541.265 14.872 541.585 15.704C541.905 16.792 542.065 18.456 542.065 20.696V73.976C542.065 75.448 542.001 76.568 541.873 77.336C541.809 78.04 541.521 78.872 541.009 79.832C540.113 81.56 537.617 82.424 533.521 82.424C529.041 82.424 526.417 81.24 525.649 78.872C525.265 77.784 525.073 76.12 525.073 73.88V54.392H499.633V73.976C499.633 75.448 499.569 76.568 499.441 77.336C499.377 78.04 499.089 78.872 498.577 79.832C497.681 81.56 495.185 82.424 491.089 82.424C486.609 82.424 483.985 81.24 483.217 78.872C482.833 77.784 482.641 76.12 482.641 73.88V20.6C482.641 19.128 482.673 18.04 482.737 17.336C482.865 16.568 483.185 15.704 483.697 14.744C484.593 13.016 487.089 12.152 491.185 12.152C495.665 12.152 498.321 13.336 499.153 15.704C499.473 16.792 499.633 18.456 499.633 20.696V40.28H525.073V20.6C525.073 19.128 525.105 18.04 525.169 17.336C525.297 16.568 525.617 15.704 526.129 14.744Z" fill="#1D1D1D"/>
<path d="M592.294 17.144L618.214 70.712C619.302 72.888 619.846 74.52 619.846 75.608C619.846 77.912 617.99 79.992 614.278 81.848C612.102 82.936 610.374 83.48 609.094 83.48C607.878 83.48 606.854 83.192 606.022 82.616C605.254 82.04 604.678 81.432 604.294 80.792C603.974 80.152 603.494 79.192 602.854 77.912L597.862 67.544H571.27L566.278 77.912C565.638 79.192 565.126 80.12 564.742 80.696C564.422 81.272 563.846 81.88 563.014 82.52C562.246 83.096 561.222 83.384 559.942 83.384C558.726 83.384 557.03 82.84 554.854 81.752C551.142 79.96 549.286 77.912 549.286 75.608C549.286 74.52 549.83 72.888 550.918 70.712L576.838 17.048C577.542 15.576 578.598 14.392 580.006 13.496C581.478 12.6 583.014 12.152 584.614 12.152C588.07 12.152 590.63 13.816 592.294 17.144ZM584.518 40.184L578.182 53.336H590.95L584.518 40.184Z" fill="#1D1D1D"/>
<path d="M625.162 72.632C623.498 70.584 622.666 68.76 622.666 67.16C622.666 65.496 624.042 63.32 626.794 60.632C628.394 59.096 630.09 58.328 631.882 58.328C633.674 58.328 636.17 59.928 639.37 63.128C640.266 64.216 641.546 65.272 643.21 66.296C644.874 67.256 646.41 67.736 647.818 67.736C653.77 67.736 656.746 65.304 656.746 60.44C656.746 58.968 655.914 57.752 654.25 56.792C652.65 55.768 650.634 55.032 648.202 54.584C645.77 54.136 643.146 53.432 640.33 52.472C637.514 51.448 634.89 50.264 632.458 48.92C630.026 47.576 627.978 45.464 626.314 42.584C624.714 39.64 623.914 36.12 623.914 32.024C623.914 26.392 625.994 21.496 630.154 17.336C634.378 13.112 640.106 11 647.338 11C651.178 11 654.666 11.512 657.802 12.536C661.002 13.496 663.21 14.488 664.426 15.512L666.826 17.336C668.81 19.192 669.802 20.76 669.802 22.04C669.802 23.32 669.034 25.08 667.498 27.32C665.322 30.52 663.082 32.12 660.778 32.12C659.434 32.12 657.77 31.48 655.786 30.2C655.594 30.072 655.21 29.752 654.634 29.24C654.122 28.728 653.642 28.312 653.194 27.992C651.85 27.16 650.122 26.744 648.01 26.744C645.962 26.744 644.234 27.256 642.826 28.28C641.482 29.24 640.81 30.616 640.81 32.408C640.81 34.136 641.61 35.544 643.21 36.632C644.874 37.72 646.922 38.456 649.354 38.84C651.786 39.224 654.442 39.832 657.322 40.664C660.202 41.432 662.858 42.392 665.29 43.544C667.722 44.696 669.738 46.712 671.338 49.592C673.002 52.408 673.834 55.896 673.834 60.056C673.834 64.216 673.002 67.896 671.338 71.096C669.674 74.232 667.498 76.664 664.81 78.392C659.626 81.784 654.09 83.48 648.202 83.48C645.194 83.48 642.346 83.128 639.658 82.424C636.97 81.656 634.794 80.728 633.13 79.64C629.738 77.592 627.37 75.608 626.026 73.688L625.162 72.632Z" fill="#1D1D1D"/>
<path d="M57.56 12.152C59.032 12.152 60.12 12.216 60.824 12.344C61.592 12.408 62.424 12.696 63.32 13.208C64.28 13.72 64.952 14.584 65.336 15.8C65.72 17.016 65.912 18.648 65.912 20.696C65.912 22.744 65.72 24.376 65.336 25.592C64.952 26.808 64.28 27.672 63.32 28.184C62.36 28.632 61.496 28.92 60.728 29.048C60.024 29.112 58.904 29.144 57.368 29.144H27.992V38.84H46.904C48.44 38.84 49.56 38.904 50.264 39.032C51.032 39.096 51.896 39.384 52.856 39.896C54.52 40.856 55.352 43.384 55.352 47.48C55.352 51.96 54.136 54.616 51.704 55.448C50.68 55.768 49.048 55.928 46.808 55.928H27.992V74.072C27.992 75.608 27.928 76.728 27.8 77.432C27.736 78.136 27.448 78.968 26.936 79.928C26.04 81.656 23.544 82.52 19.448 82.52C14.968 82.52 12.344 81.304 11.576 78.872C11.192 77.848 11 76.216 11 73.976V20.6C11 17.336 11.608 15.128 12.824 13.976C14.04 12.76 16.344 12.152 19.736 12.152H57.56Z" stroke="#1D1D1D" stroke-width="10" mask="url(#path-1-outside-1_76_12420)"/>
<path d="M74.045 20.6C74.045 19.128 74.077 18.04 74.141 17.336C74.269 16.568 74.589 15.704 75.101 14.744C75.997 13.016 78.493 12.152 82.589 12.152C87.069 12.152 89.725 13.336 90.557 15.704C90.877 16.792 91.037 18.456 91.037 20.696V74.072C91.037 75.608 90.973 76.728 90.845 77.432C90.781 78.136 90.493 78.968 89.981 79.928C89.085 81.656 86.589 82.52 82.493 82.52C78.013 82.52 75.389 81.304 74.621 78.872C74.237 77.848 74.045 76.216 74.045 73.976V20.6Z" stroke="#1D1D1D" stroke-width="10" mask="url(#path-1-outside-1_76_12420)"/>
<path d="M146.029 15.128C146.669 13.976 147.597 13.208 148.813 12.824C150.029 12.44 151.533 12.248 153.325 12.248C155.181 12.248 156.653 12.408 157.741 12.728C158.893 13.048 159.725 13.432 160.237 13.88C160.813 14.328 161.229 15 161.485 15.896C161.869 16.92 162.061 18.552 162.061 20.792V74.072C162.061 75.608 161.997 76.728 161.869 77.432C161.805 78.136 161.517 78.968 161.005 79.928C160.109 81.656 157.613 82.52 153.517 82.52C151.021 82.52 149.293 82.328 148.333 81.944C147.373 81.56 146.573 80.952 145.933 80.12C131.533 60.92 122.061 48.376 117.517 42.488V74.072C117.517 75.608 117.453 76.728 117.325 77.432C117.261 78.136 116.973 78.968 116.461 79.928C115.565 81.656 113.069 82.52 108.973 82.52C105.005 82.52 102.573 81.656 101.677 79.928C101.165 78.968 100.845 78.104 100.717 77.336C100.653 76.568 100.621 75.448 100.621 73.976V20.408C100.621 17.976 100.909 16.216 101.485 15.128C102.125 13.976 103.053 13.208 104.269 12.824C105.485 12.44 107.053 12.248 108.973 12.248C110.893 12.248 112.397 12.44 113.485 12.824C114.637 13.144 115.437 13.528 115.885 13.976C116.141 14.168 116.877 15 118.093 16.472C131.597 34.84 140.621 46.968 145.165 52.856V20.408C145.165 17.976 145.453 16.216 146.029 15.128Z" stroke="#1D1D1D" stroke-width="10" mask="url(#path-1-outside-1_76_12420)"/>
<path d="M212.243 17.144L238.163 70.712C239.251 72.888 239.795 74.52 239.795 75.608C239.795 77.912 237.939 79.992 234.227 81.848C232.051 82.936 230.323 83.48 229.043 83.48C227.827 83.48 226.803 83.192 225.971 82.616C225.203 82.04 224.627 81.432 224.243 80.792C223.923 80.152 223.443 79.192 222.803 77.912L217.811 67.544H191.219L186.227 77.912C185.587 79.192 185.075 80.12 184.691 80.696C184.371 81.272 183.795 81.88 182.963 82.52C182.195 83.096 181.171 83.384 179.891 83.384C178.675 83.384 176.979 82.84 174.803 81.752C171.091 79.96 169.235 77.912 169.235 75.608C169.235 74.52 169.779 72.888 170.867 70.712L196.787 17.048C197.491 15.576 198.547 14.392 199.955 13.496C201.427 12.6 202.963 12.152 204.563 12.152C208.019 12.152 210.579 13.816 212.243 17.144ZM204.467 40.184L198.131 53.336H210.899L204.467 40.184Z" stroke="#1D1D1D" stroke-width="10" mask="url(#path-1-outside-1_76_12420)"/>
<path d="M292.369 15.128C293.009 13.976 293.937 13.208 295.153 12.824C296.369 12.44 297.873 12.248 299.665 12.248C301.521 12.248 302.993 12.408 304.081 12.728C305.233 13.048 306.065 13.432 306.577 13.88C307.153 14.328 307.569 15 307.825 15.896C308.209 16.92 308.401 18.552 308.401 20.792V74.072C308.401 75.608 308.337 76.728 308.209 77.432C308.145 78.136 307.857 78.968 307.345 79.928C306.449 81.656 303.953 82.52 299.857 82.52C297.361 82.52 295.633 82.328 294.673 81.944C293.713 81.56 292.913 80.952 292.273 80.12C277.873 60.92 268.401 48.376 263.857 42.488V74.072C263.857 75.608 263.793 76.728 263.665 77.432C263.601 78.136 263.313 78.968 262.801 79.928C261.905 81.656 259.409 82.52 255.313 82.52C251.345 82.52 248.913 81.656 248.017 79.928C247.505 78.968 247.185 78.104 247.057 77.336C246.993 76.568 246.961 75.448 246.961 73.976V20.408C246.961 17.976 247.249 16.216 247.825 15.128C248.465 13.976 249.393 13.208 250.609 12.824C251.825 12.44 253.393 12.248 255.313 12.248C257.233 12.248 258.737 12.44 259.825 12.824C260.977 13.144 261.777 13.528 262.225 13.976C262.481 14.168 263.217 15 264.433 16.472C277.937 34.84 286.961 46.968 291.505 52.856V20.408C291.505 17.976 291.793 16.216 292.369 15.128Z" stroke="#1D1D1D" stroke-width="10" mask="url(#path-1-outside-1_76_12420)"/>
<path d="M361.943 64.088L363.671 62.84C365.847 61.56 367.383 60.92 368.279 60.92C370.263 60.92 372.407 62.712 374.711 66.296C376.119 68.536 376.823 70.328 376.823 71.672C376.823 73.016 376.375 74.136 375.479 75.032C374.647 75.928 373.655 76.728 372.503 77.432C371.351 78.136 370.231 78.808 369.143 79.448C368.119 80.088 365.975 80.92 362.711 81.944C359.447 82.968 356.279 83.48 353.207 83.48C350.199 83.48 347.127 83.096 343.991 82.328C340.919 81.496 337.719 80.152 334.391 78.296C331.127 76.376 328.183 74.072 325.559 71.384C322.935 68.632 320.759 65.144 319.031 60.92C317.367 56.632 316.535 51.992 316.535 47C316.535 42.008 317.367 37.496 319.031 33.464C320.695 29.368 322.807 26.008 325.367 23.384C327.991 20.696 330.967 18.456 334.295 16.664C340.567 13.208 346.871 11.48 353.207 11.48C356.215 11.48 359.255 11.96 362.327 12.92C365.463 13.816 367.831 14.744 369.431 15.704L371.735 17.048C372.887 17.752 373.783 18.328 374.423 18.776C376.087 20.12 376.919 21.656 376.919 23.384C376.919 25.048 376.247 26.808 374.903 28.664C372.407 32.12 370.167 33.848 368.183 33.848C367.031 33.848 365.399 33.144 363.287 31.736C360.599 29.56 357.015 28.472 352.535 28.472C348.375 28.472 344.279 29.912 340.247 32.792C338.327 34.2 336.727 36.184 335.447 38.744C334.167 41.304 333.527 44.216 333.527 47.48C333.527 50.68 334.167 53.56 335.447 56.12C336.727 58.68 338.359 60.696 340.343 62.168C344.247 64.984 348.311 66.392 352.535 66.392C354.519 66.392 356.375 66.136 358.103 65.624C359.895 65.112 361.175 64.6 361.943 64.088Z" stroke="#1D1D1D" stroke-width="10" mask="url(#path-1-outside-1_76_12420)"/>
<path d="M385.051 20.6C385.051 19.128 385.083 18.04 385.147 17.336C385.275 16.568 385.595 15.704 386.107 14.744C387.003 13.016 389.499 12.152 393.595 12.152C398.075 12.152 400.731 13.336 401.563 15.704C401.883 16.792 402.043 18.456 402.043 20.696V74.072C402.043 75.608 401.979 76.728 401.851 77.432C401.787 78.136 401.499 78.968 400.987 79.928C400.091 81.656 397.595 82.52 393.499 82.52C389.019 82.52 386.395 81.304 385.627 78.872C385.243 77.848 385.051 76.216 385.051 73.976V20.6Z" stroke="#1D1D1D" stroke-width="10" mask="url(#path-1-outside-1_76_12420)"/>
<path d="M457.035 15.128C457.675 13.976 458.604 13.208 459.82 12.824C461.036 12.44 462.54 12.248 464.332 12.248C466.188 12.248 467.659 12.408 468.747 12.728C469.9 13.048 470.732 13.432 471.243 13.88C471.819 14.328 472.236 15 472.492 15.896C472.876 16.92 473.068 18.552 473.068 20.792V74.072C473.068 75.608 473.004 76.728 472.876 77.432C472.812 78.136 472.523 78.968 472.012 79.928C471.116 81.656 468.62 82.52 464.523 82.52C462.027 82.52 460.299 82.328 459.34 81.944C458.38 81.56 457.58 80.952 456.94 80.12C442.54 60.92 433.068 48.376 428.523 42.488V74.072C428.523 75.608 428.46 76.728 428.332 77.432C428.268 78.136 427.979 78.968 427.467 79.928C426.572 81.656 424.076 82.52 419.979 82.52C416.012 82.52 413.579 81.656 412.684 79.928C412.172 78.968 411.852 78.104 411.724 77.336C411.66 76.568 411.628 75.448 411.628 73.976V20.408C411.628 17.976 411.916 16.216 412.492 15.128C413.132 13.976 414.06 13.208 415.276 12.824C416.492 12.44 418.059 12.248 419.979 12.248C421.9 12.248 423.404 12.44 424.492 12.824C425.644 13.144 426.444 13.528 426.892 13.976C427.148 14.168 427.884 15 429.1 16.472C442.604 34.84 451.628 46.968 456.172 52.856V20.408C456.172 17.976 456.46 16.216 457.035 15.128Z" stroke="#1D1D1D" stroke-width="10" mask="url(#path-1-outside-1_76_12420)"/>
<path d="M526.129 14.744C526.641 13.784 527.505 13.112 528.721 12.728C529.937 12.344 531.473 12.152 533.329 12.152C535.185 12.152 536.657 12.312 537.745 12.632C538.833 12.952 539.665 13.336 540.241 13.784C540.817 14.232 541.265 14.872 541.585 15.704C541.905 16.792 542.065 18.456 542.065 20.696V73.976C542.065 75.448 542.001 76.568 541.873 77.336C541.809 78.04 541.521 78.872 541.009 79.832C540.113 81.56 537.617 82.424 533.521 82.424C529.041 82.424 526.417 81.24 525.649 78.872C525.265 77.784 525.073 76.12 525.073 73.88V54.392H499.633V73.976C499.633 75.448 499.569 76.568 499.441 77.336C499.377 78.04 499.089 78.872 498.577 79.832C497.681 81.56 495.185 82.424 491.089 82.424C486.609 82.424 483.985 81.24 483.217 78.872C482.833 77.784 482.641 76.12 482.641 73.88V20.6C482.641 19.128 482.673 18.04 482.737 17.336C482.865 16.568 483.185 15.704 483.697 14.744C484.593 13.016 487.089 12.152 491.185 12.152C495.665 12.152 498.321 13.336 499.153 15.704C499.473 16.792 499.633 18.456 499.633 20.696V40.28H525.073V20.6C525.073 19.128 525.105 18.04 525.169 17.336C525.297 16.568 525.617 15.704 526.129 14.744Z" stroke="#1D1D1D" stroke-width="10" mask="url(#path-1-outside-1_76_12420)"/>
<path d="M592.294 17.144L618.214 70.712C619.302 72.888 619.846 74.52 619.846 75.608C619.846 77.912 617.99 79.992 614.278 81.848C612.102 82.936 610.374 83.48 609.094 83.48C607.878 83.48 606.854 83.192 606.022 82.616C605.254 82.04 604.678 81.432 604.294 80.792C603.974 80.152 603.494 79.192 602.854 77.912L597.862 67.544H571.27L566.278 77.912C565.638 79.192 565.126 80.12 564.742 80.696C564.422 81.272 563.846 81.88 563.014 82.52C562.246 83.096 561.222 83.384 559.942 83.384C558.726 83.384 557.03 82.84 554.854 81.752C551.142 79.96 549.286 77.912 549.286 75.608C549.286 74.52 549.83 72.888 550.918 70.712L576.838 17.048C577.542 15.576 578.598 14.392 580.006 13.496C581.478 12.6 583.014 12.152 584.614 12.152C588.07 12.152 590.63 13.816 592.294 17.144ZM584.518 40.184L578.182 53.336H590.95L584.518 40.184Z" stroke="#1D1D1D" stroke-width="10" mask="url(#path-1-outside-1_76_12420)"/>
<path d="M625.162 72.632C623.498 70.584 622.666 68.76 622.666 67.16C622.666 65.496 624.042 63.32 626.794 60.632C628.394 59.096 630.09 58.328 631.882 58.328C633.674 58.328 636.17 59.928 639.37 63.128C640.266 64.216 641.546 65.272 643.21 66.296C644.874 67.256 646.41 67.736 647.818 67.736C653.77 67.736 656.746 65.304 656.746 60.44C656.746 58.968 655.914 57.752 654.25 56.792C652.65 55.768 650.634 55.032 648.202 54.584C645.77 54.136 643.146 53.432 640.33 52.472C637.514 51.448 634.89 50.264 632.458 48.92C630.026 47.576 627.978 45.464 626.314 42.584C624.714 39.64 623.914 36.12 623.914 32.024C623.914 26.392 625.994 21.496 630.154 17.336C634.378 13.112 640.106 11 647.338 11C651.178 11 654.666 11.512 657.802 12.536C661.002 13.496 663.21 14.488 664.426 15.512L666.826 17.336C668.81 19.192 669.802 20.76 669.802 22.04C669.802 23.32 669.034 25.08 667.498 27.32C665.322 30.52 663.082 32.12 660.778 32.12C659.434 32.12 657.77 31.48 655.786 30.2C655.594 30.072 655.21 29.752 654.634 29.24C654.122 28.728 653.642 28.312 653.194 27.992C651.85 27.16 650.122 26.744 648.01 26.744C645.962 26.744 644.234 27.256 642.826 28.28C641.482 29.24 640.81 30.616 640.81 32.408C640.81 34.136 641.61 35.544 643.21 36.632C644.874 37.72 646.922 38.456 649.354 38.84C651.786 39.224 654.442 39.832 657.322 40.664C660.202 41.432 662.858 42.392 665.29 43.544C667.722 44.696 669.738 46.712 671.338 49.592C673.002 52.408 673.834 55.896 673.834 60.056C673.834 64.216 673.002 67.896 671.338 71.096C669.674 74.232 667.498 76.664 664.81 78.392C659.626 81.784 654.09 83.48 648.202 83.48C645.194 83.48 642.346 83.128 639.658 82.424C636.97 81.656 634.794 80.728 633.13 79.64C629.738 77.592 627.37 75.608 626.026 73.688L625.162 72.632Z" stroke="#1D1D1D" stroke-width="10" mask="url(#path-1-outside-1_76_12420)"/>
<mask id="path-2-outside-2_76_12420" maskUnits="userSpaceOnUse" x="0" y="0" width="673" height="83" fill="black">
<rect fill="white" width="673" height="83"/>
<path d="M51.56 6.152C53.032 6.152 54.12 6.216 54.824 6.34401C55.592 6.408 56.424 6.696 57.32 7.208C58.28 7.72 58.952 8.584 59.336 9.8C59.72 11.016 59.912 12.648 59.912 14.696C59.912 16.744 59.72 18.376 59.336 19.592C58.952 20.808 58.28 21.672 57.32 22.184C56.36 22.632 55.496 22.92 54.728 23.048C54.024 23.112 52.904 23.144 51.368 23.144H21.992V32.84H40.904C42.44 32.84 43.56 32.904 44.264 33.032C45.032 33.096 45.896 33.384 46.856 33.896C48.52 34.856 49.352 37.384 49.352 41.48C49.352 45.96 48.136 48.616 45.704 49.448C44.68 49.768 43.048 49.928 40.808 49.928H21.992V68.072C21.992 69.608 21.928 70.728 21.8 71.432C21.736 72.136 21.448 72.968 20.936 73.928C20.04 75.656 17.544 76.52 13.448 76.52C8.968 76.52 6.344 75.304 5.576 72.872C5.192 71.848 5 70.216 5 67.976V14.6C5 11.336 5.608 9.128 6.824 7.976C8.04 6.76 10.344 6.152 13.736 6.152H51.56Z"/>
<path d="M68.045 14.6C68.045 13.128 68.077 12.04 68.141 11.336C68.269 10.568 68.589 9.704 69.101 8.744C69.997 7.016 72.493 6.152 76.589 6.152C81.069 6.152 83.725 7.336 84.557 9.704C84.877 10.792 85.037 12.456 85.037 14.696V68.072C85.037 69.608 84.973 70.728 84.845 71.432C84.781 72.136 84.493 72.968 83.981 73.928C83.085 75.656 80.589 76.52 76.493 76.52C72.013 76.52 69.389 75.304 68.621 72.872C68.237 71.848 68.045 70.216 68.045 67.976V14.6Z"/>
<path d="M140.029 9.128C140.669 7.976 141.597 7.208 142.813 6.82401C144.029 6.44 145.533 6.248 147.325 6.248C149.181 6.248 150.653 6.408 151.741 6.728C152.893 7.048 153.725 7.432 154.237 7.88C154.813 8.328 155.229 9.00001 155.485 9.89601C155.869 10.92 156.061 12.552 156.061 14.792V68.072C156.061 69.608 155.997 70.728 155.869 71.432C155.805 72.136 155.517 72.968 155.005 73.928C154.109 75.656 151.613 76.52 147.517 76.52C145.021 76.52 143.293 76.328 142.333 75.944C141.373 75.56 140.573 74.952 139.933 74.12C125.533 54.92 116.061 42.376 111.517 36.488V68.072C111.517 69.608 111.453 70.728 111.325 71.432C111.261 72.136 110.973 72.968 110.461 73.928C109.565 75.656 107.069 76.52 102.973 76.52C99.0052 76.52 96.5732 75.656 95.6772 73.928C95.1652 72.968 94.8452 72.104 94.7172 71.336C94.6532 70.568 94.6212 69.448 94.6212 67.976V14.408C94.6212 11.976 94.9092 10.216 95.4852 9.128C96.1252 7.976 97.0532 7.208 98.2692 6.82401C99.4853 6.44 101.053 6.248 102.973 6.248C104.893 6.248 106.397 6.44 107.485 6.82401C108.637 7.144 109.437 7.528 109.885 7.976C110.141 8.168 110.877 9 112.093 10.472C125.597 28.84 134.621 40.968 139.165 46.856V14.408C139.165 11.976 139.453 10.216 140.029 9.128Z"/>
<path d="M206.243 11.144L232.163 64.712C233.251 66.888 233.795 68.52 233.795 69.608C233.795 71.912 231.939 73.992 228.227 75.848C226.051 76.936 224.323 77.48 223.043 77.48C221.827 77.48 220.803 77.192 219.971 76.616C219.203 76.04 218.627 75.432 218.243 74.792C217.923 74.152 217.443 73.192 216.803 71.912L211.811 61.544H185.219L180.227 71.912C179.587 73.192 179.075 74.12 178.691 74.696C178.371 75.272 177.795 75.88 176.963 76.52C176.195 77.096 175.171 77.384 173.891 77.384C172.675 77.384 170.979 76.84 168.803 75.752C165.091 73.96 163.235 71.912 163.235 69.608C163.235 68.52 163.779 66.888 164.867 64.712L190.787 11.048C191.491 9.576 192.547 8.392 193.955 7.496C195.427 6.6 196.963 6.152 198.563 6.152C202.019 6.152 204.579 7.816 206.243 11.144ZM198.467 34.184L192.131 47.336H204.899L198.467 34.184Z"/>
<path d="M286.369 9.128C287.009 7.976 287.937 7.208 289.153 6.82401C290.369 6.44 291.873 6.248 293.665 6.248C295.521 6.248 296.993 6.408 298.081 6.728C299.233 7.048 300.065 7.432 300.577 7.88C301.153 8.328 301.569 9.00001 301.825 9.89601C302.209 10.92 302.401 12.552 302.401 14.792V68.072C302.401 69.608 302.337 70.728 302.209 71.432C302.145 72.136 301.857 72.968 301.345 73.928C300.449 75.656 297.953 76.52 293.857 76.52C291.361 76.52 289.633 76.328 288.673 75.944C287.713 75.56 286.913 74.952 286.273 74.12C271.873 54.92 262.401 42.376 257.857 36.488V68.072C257.857 69.608 257.793 70.728 257.665 71.432C257.601 72.136 257.313 72.968 256.801 73.928C255.905 75.656 253.409 76.52 249.313 76.52C245.345 76.52 242.913 75.656 242.017 73.928C241.505 72.968 241.185 72.104 241.057 71.336C240.993 70.568 240.961 69.448 240.961 67.976V14.408C240.961 11.976 241.249 10.216 241.825 9.128C242.465 7.976 243.393 7.208 244.609 6.82401C245.825 6.44 247.393 6.248 249.313 6.248C251.233 6.248 252.737 6.44 253.825 6.82401C254.977 7.144 255.777 7.528 256.225 7.976C256.481 8.168 257.217 9 258.433 10.472C271.937 28.84 280.961 40.968 285.505 46.856V14.408C285.505 11.976 285.793 10.216 286.369 9.128Z"/>
<path d="M355.943 58.088L357.671 56.84C359.847 55.56 361.383 54.92 362.279 54.92C364.263 54.92 366.407 56.712 368.711 60.296C370.119 62.536 370.823 64.328 370.823 65.672C370.823 67.016 370.375 68.136 369.479 69.032C368.647 69.928 367.655 70.728 366.503 71.432C365.351 72.136 364.231 72.808 363.143 73.448C362.119 74.088 359.975 74.92 356.711 75.944C353.447 76.968 350.279 77.48 347.207 77.48C344.199 77.48 341.127 77.096 337.991 76.328C334.919 75.496 331.719 74.152 328.391 72.296C325.127 70.376 322.183 68.072 319.559 65.384C316.935 62.632 314.759 59.144 313.031 54.92C311.367 50.632 310.535 45.992 310.535 41C310.535 36.008 311.367 31.496 313.031 27.464C314.695 23.368 316.807 20.008 319.367 17.384C321.991 14.696 324.967 12.456 328.295 10.664C334.567 7.208 340.871 5.48001 347.207 5.48001C350.215 5.48001 353.255 5.96 356.327 6.92C359.463 7.816 361.831 8.744 363.431 9.704L365.735 11.048C366.887 11.752 367.783 12.328 368.423 12.776C370.087 14.12 370.919 15.656 370.919 17.384C370.919 19.048 370.247 20.808 368.903 22.664C366.407 26.12 364.167 27.848 362.183 27.848C361.031 27.848 359.399 27.144 357.287 25.736C354.599 23.56 351.015 22.472 346.535 22.472C342.375 22.472 338.279 23.912 334.247 26.792C332.327 28.2 330.727 30.184 329.447 32.744C328.167 35.304 327.527 38.216 327.527 41.48C327.527 44.68 328.167 47.56 329.447 50.12C330.727 52.68 332.359 54.696 334.343 56.168C338.247 58.984 342.311 60.392 346.535 60.392C348.519 60.392 350.375 60.136 352.103 59.624C353.895 59.112 355.175 58.6 355.943 58.088Z"/>
<path d="M379.051 14.6C379.051 13.128 379.083 12.04 379.147 11.336C379.275 10.568 379.595 9.704 380.107 8.744C381.003 7.016 383.499 6.152 387.595 6.152C392.075 6.152 394.731 7.336 395.563 9.704C395.883 10.792 396.043 12.456 396.043 14.696V68.072C396.043 69.608 395.979 70.728 395.851 71.432C395.787 72.136 395.499 72.968 394.987 73.928C394.091 75.656 391.595 76.52 387.499 76.52C383.019 76.52 380.395 75.304 379.627 72.872C379.243 71.848 379.051 70.216 379.051 67.976V14.6Z"/>
<path d="M451.035 9.128C451.675 7.976 452.604 7.208 453.82 6.82401C455.036 6.44 456.54 6.248 458.332 6.248C460.188 6.248 461.659 6.408 462.747 6.728C463.9 7.048 464.732 7.432 465.243 7.88C465.819 8.328 466.236 9.00001 466.492 9.89601C466.876 10.92 467.068 12.552 467.068 14.792V68.072C467.068 69.608 467.004 70.728 466.876 71.432C466.812 72.136 466.523 72.968 466.012 73.928C465.116 75.656 462.62 76.52 458.523 76.52C456.027 76.52 454.299 76.328 453.34 75.944C452.38 75.56 451.58 74.952 450.94 74.12C436.54 54.92 427.068 42.376 422.523 36.488V68.072C422.523 69.608 422.46 70.728 422.332 71.432C422.268 72.136 421.979 72.968 421.467 73.928C420.572 75.656 418.076 76.52 413.979 76.52C410.012 76.52 407.579 75.656 406.684 73.928C406.172 72.968 405.852 72.104 405.724 71.336C405.66 70.568 405.628 69.448 405.628 67.976V14.408C405.628 11.976 405.916 10.216 406.492 9.128C407.132 7.976 408.06 7.208 409.276 6.82401C410.492 6.44 412.059 6.248 413.979 6.248C415.9 6.248 417.404 6.44 418.492 6.82401C419.644 7.144 420.444 7.528 420.892 7.976C421.148 8.168 421.884 9 423.1 10.472C436.604 28.84 445.628 40.968 450.172 46.856V14.408C450.172 11.976 450.46 10.216 451.035 9.128Z"/>
<path d="M520.129 8.744C520.641 7.784 521.505 7.112 522.721 6.728C523.937 6.344 525.473 6.152 527.329 6.152C529.185 6.152 530.657 6.312 531.745 6.632C532.833 6.952 533.665 7.336 534.241 7.784C534.817 8.232 535.265 8.872 535.585 9.704C535.905 10.792 536.065 12.456 536.065 14.696V67.976C536.065 69.448 536.001 70.568 535.873 71.336C535.809 72.04 535.521 72.872 535.009 73.832C534.113 75.56 531.617 76.424 527.521 76.424C523.041 76.424 520.417 75.24 519.649 72.872C519.265 71.784 519.073 70.12 519.073 67.88V48.392H493.633V67.976C493.633 69.448 493.569 70.568 493.441 71.336C493.377 72.04 493.089 72.872 492.577 73.832C491.681 75.56 489.185 76.424 485.089 76.424C480.609 76.424 477.985 75.24 477.217 72.872C476.833 71.784 476.641 70.12 476.641 67.88V14.6C476.641 13.128 476.673 12.04 476.737 11.336C476.865 10.568 477.185 9.704 477.697 8.744C478.593 7.016 481.089 6.152 485.185 6.152C489.665 6.152 492.321 7.336 493.153 9.704C493.473 10.792 493.633 12.456 493.633 14.696V34.28H519.073V14.6C519.073 13.128 519.105 12.04 519.169 11.336C519.297 10.568 519.617 9.704 520.129 8.744Z"/>
<path d="M586.294 11.144L612.214 64.712C613.302 66.888 613.846 68.52 613.846 69.608C613.846 71.912 611.99 73.992 608.278 75.848C606.102 76.936 604.374 77.48 603.094 77.48C601.878 77.48 600.854 77.192 600.022 76.616C599.254 76.04 598.678 75.432 598.294 74.792C597.974 74.152 597.494 73.192 596.854 71.912L591.862 61.544H565.27L560.278 71.912C559.638 73.192 559.126 74.12 558.742 74.696C558.422 75.272 557.846 75.88 557.014 76.52C556.246 77.096 555.222 77.384 553.942 77.384C552.726 77.384 551.03 76.84 548.854 75.752C545.142 73.96 543.286 71.912 543.286 69.608C543.286 68.52 543.83 66.888 544.918 64.712L570.838 11.048C571.542 9.576 572.598 8.392 574.006 7.496C575.478 6.6 577.014 6.152 578.614 6.152C582.07 6.152 584.63 7.816 586.294 11.144ZM578.518 34.184L572.182 47.336H584.95L578.518 34.184Z"/>
<path d="M619.162 66.632C617.498 64.584 616.666 62.76 616.666 61.16C616.666 59.496 618.042 57.32 620.794 54.632C622.394 53.096 624.09 52.328 625.882 52.328C627.674 52.328 630.17 53.928 633.37 57.128C634.266 58.216 635.546 59.272 637.21 60.296C638.874 61.256 640.41 61.736 641.818 61.736C647.77 61.736 650.746 59.304 650.746 54.44C650.746 52.968 649.914 51.752 648.25 50.792C646.65 49.768 644.634 49.032 642.202 48.584C639.77 48.136 637.146 47.432 634.33 46.472C631.514 45.448 628.89 44.264 626.458 42.92C624.026 41.576 621.978 39.464 620.314 36.584C618.714 33.64 617.914 30.12 617.914 26.024C617.914 20.392 619.994 15.496 624.154 11.336C628.378 7.112 634.106 5 641.338 5C645.178 5 648.666 5.512 651.802 6.536C655.002 7.496 657.21 8.488 658.426 9.512L660.826 11.336C662.81 13.192 663.802 14.76 663.802 16.04C663.802 17.32 663.034 19.08 661.498 21.32C659.322 24.52 657.082 26.12 654.778 26.12C653.434 26.12 651.77 25.48 649.786 24.2C649.594 24.072 649.21 23.752 648.634 23.24C648.122 22.728 647.642 22.312 647.194 21.992C645.85 21.16 644.122 20.744 642.01 20.744C639.962 20.744 638.234 21.256 636.826 22.28C635.482 23.24 634.81 24.616 634.81 26.408C634.81 28.136 635.61 29.544 637.21 30.632C638.874 31.72 640.922 32.456 643.354 32.84C645.786 33.224 648.442 33.832 651.322 34.664C654.202 35.432 656.858 36.392 659.29 37.544C661.722 38.696 663.738 40.712 665.338 43.592C667.002 46.408 667.834 49.896 667.834 54.056C667.834 58.216 667.002 61.896 665.338 65.096C663.674 68.232 661.498 70.664 658.81 72.392C653.626 75.784 648.09 77.48 642.202 77.48C639.194 77.48 636.346 77.128 633.658 76.424C630.97 75.656 628.794 74.728 627.13 73.64C623.738 71.592 621.37 69.608 620.026 67.688L619.162 66.632Z"/>
</mask>
<path d="M51.56 6.152C53.032 6.152 54.12 6.216 54.824 6.34401C55.592 6.408 56.424 6.696 57.32 7.208C58.28 7.72 58.952 8.584 59.336 9.8C59.72 11.016 59.912 12.648 59.912 14.696C59.912 16.744 59.72 18.376 59.336 19.592C58.952 20.808 58.28 21.672 57.32 22.184C56.36 22.632 55.496 22.92 54.728 23.048C54.024 23.112 52.904 23.144 51.368 23.144H21.992V32.84H40.904C42.44 32.84 43.56 32.904 44.264 33.032C45.032 33.096 45.896 33.384 46.856 33.896C48.52 34.856 49.352 37.384 49.352 41.48C49.352 45.96 48.136 48.616 45.704 49.448C44.68 49.768 43.048 49.928 40.808 49.928H21.992V68.072C21.992 69.608 21.928 70.728 21.8 71.432C21.736 72.136 21.448 72.968 20.936 73.928C20.04 75.656 17.544 76.52 13.448 76.52C8.968 76.52 6.344 75.304 5.576 72.872C5.192 71.848 5 70.216 5 67.976V14.6C5 11.336 5.608 9.128 6.824 7.976C8.04 6.76 10.344 6.152 13.736 6.152H51.56Z" fill="#FFE100"/>
<path d="M68.045 14.6C68.045 13.128 68.077 12.04 68.141 11.336C68.269 10.568 68.589 9.704 69.101 8.744C69.997 7.016 72.493 6.152 76.589 6.152C81.069 6.152 83.725 7.336 84.557 9.704C84.877 10.792 85.037 12.456 85.037 14.696V68.072C85.037 69.608 84.973 70.728 84.845 71.432C84.781 72.136 84.493 72.968 83.981 73.928C83.085 75.656 80.589 76.52 76.493 76.52C72.013 76.52 69.389 75.304 68.621 72.872C68.237 71.848 68.045 70.216 68.045 67.976V14.6Z" fill="#FFE100"/>
<path d="M140.029 9.128C140.669 7.976 141.597 7.208 142.813 6.82401C144.029 6.44 145.533 6.248 147.325 6.248C149.181 6.248 150.653 6.408 151.741 6.728C152.893 7.048 153.725 7.432 154.237 7.88C154.813 8.328 155.229 9.00001 155.485 9.89601C155.869 10.92 156.061 12.552 156.061 14.792V68.072C156.061 69.608 155.997 70.728 155.869 71.432C155.805 72.136 155.517 72.968 155.005 73.928C154.109 75.656 151.613 76.52 147.517 76.52C145.021 76.52 143.293 76.328 142.333 75.944C141.373 75.56 140.573 74.952 139.933 74.12C125.533 54.92 116.061 42.376 111.517 36.488V68.072C111.517 69.608 111.453 70.728 111.325 71.432C111.261 72.136 110.973 72.968 110.461 73.928C109.565 75.656 107.069 76.52 102.973 76.52C99.0052 76.52 96.5732 75.656 95.6772 73.928C95.1652 72.968 94.8452 72.104 94.7172 71.336C94.6532 70.568 94.6212 69.448 94.6212 67.976V14.408C94.6212 11.976 94.9092 10.216 95.4852 9.128C96.1252 7.976 97.0532 7.208 98.2692 6.82401C99.4853 6.44 101.053 6.248 102.973 6.248C104.893 6.248 106.397 6.44 107.485 6.82401C108.637 7.144 109.437 7.528 109.885 7.976C110.141 8.168 110.877 9 112.093 10.472C125.597 28.84 134.621 40.968 139.165 46.856V14.408C139.165 11.976 139.453 10.216 140.029 9.128Z" fill="#FFE100"/>
<path d="M206.243 11.144L232.163 64.712C233.251 66.888 233.795 68.52 233.795 69.608C233.795 71.912 231.939 73.992 228.227 75.848C226.051 76.936 224.323 77.48 223.043 77.48C221.827 77.48 220.803 77.192 219.971 76.616C219.203 76.04 218.627 75.432 218.243 74.792C217.923 74.152 217.443 73.192 216.803 71.912L211.811 61.544H185.219L180.227 71.912C179.587 73.192 179.075 74.12 178.691 74.696C178.371 75.272 177.795 75.88 176.963 76.52C176.195 77.096 175.171 77.384 173.891 77.384C172.675 77.384 170.979 76.84 168.803 75.752C165.091 73.96 163.235 71.912 163.235 69.608C163.235 68.52 163.779 66.888 164.867 64.712L190.787 11.048C191.491 9.576 192.547 8.392 193.955 7.496C195.427 6.6 196.963 6.152 198.563 6.152C202.019 6.152 204.579 7.816 206.243 11.144ZM198.467 34.184L192.131 47.336H204.899L198.467 34.184Z" fill="#FFE100"/>
<path d="M286.369 9.128C287.009 7.976 287.937 7.208 289.153 6.82401C290.369 6.44 291.873 6.248 293.665 6.248C295.521 6.248 296.993 6.408 298.081 6.728C299.233 7.048 300.065 7.432 300.577 7.88C301.153 8.328 301.569 9.00001 301.825 9.89601C302.209 10.92 302.401 12.552 302.401 14.792V68.072C302.401 69.608 302.337 70.728 302.209 71.432C302.145 72.136 301.857 72.968 301.345 73.928C300.449 75.656 297.953 76.52 293.857 76.52C291.361 76.52 289.633 76.328 288.673 75.944C287.713 75.56 286.913 74.952 286.273 74.12C271.873 54.92 262.401 42.376 257.857 36.488V68.072C257.857 69.608 257.793 70.728 257.665 71.432C257.601 72.136 257.313 72.968 256.801 73.928C255.905 75.656 253.409 76.52 249.313 76.52C245.345 76.52 242.913 75.656 242.017 73.928C241.505 72.968 241.185 72.104 241.057 71.336C240.993 70.568 240.961 69.448 240.961 67.976V14.408C240.961 11.976 241.249 10.216 241.825 9.128C242.465 7.976 243.393 7.208 244.609 6.82401C245.825 6.44 247.393 6.248 249.313 6.248C251.233 6.248 252.737 6.44 253.825 6.82401C254.977 7.144 255.777 7.528 256.225 7.976C256.481 8.168 257.217 9 258.433 10.472C271.937 28.84 280.961 40.968 285.505 46.856V14.408C285.505 11.976 285.793 10.216 286.369 9.128Z" fill="#FFE100"/>
<path d="M355.943 58.088L357.671 56.84C359.847 55.56 361.383 54.92 362.279 54.92C364.263 54.92 366.407 56.712 368.711 60.296C370.119 62.536 370.823 64.328 370.823 65.672C370.823 67.016 370.375 68.136 369.479 69.032C368.647 69.928 367.655 70.728 366.503 71.432C365.351 72.136 364.231 72.808 363.143 73.448C362.119 74.088 359.975 74.92 356.711 75.944C353.447 76.968 350.279 77.48 347.207 77.48C344.199 77.48 341.127 77.096 337.991 76.328C334.919 75.496 331.719 74.152 328.391 72.296C325.127 70.376 322.183 68.072 319.559 65.384C316.935 62.632 314.759 59.144 313.031 54.92C311.367 50.632 310.535 45.992 310.535 41C310.535 36.008 311.367 31.496 313.031 27.464C314.695 23.368 316.807 20.008 319.367 17.384C321.991 14.696 324.967 12.456 328.295 10.664C334.567 7.208 340.871 5.48001 347.207 5.48001C350.215 5.48001 353.255 5.96 356.327 6.92C359.463 7.816 361.831 8.744 363.431 9.704L365.735 11.048C366.887 11.752 367.783 12.328 368.423 12.776C370.087 14.12 370.919 15.656 370.919 17.384C370.919 19.048 370.247 20.808 368.903 22.664C366.407 26.12 364.167 27.848 362.183 27.848C361.031 27.848 359.399 27.144 357.287 25.736C354.599 23.56 351.015 22.472 346.535 22.472C342.375 22.472 338.279 23.912 334.247 26.792C332.327 28.2 330.727 30.184 329.447 32.744C328.167 35.304 327.527 38.216 327.527 41.48C327.527 44.68 328.167 47.56 329.447 50.12C330.727 52.68 332.359 54.696 334.343 56.168C338.247 58.984 342.311 60.392 346.535 60.392C348.519 60.392 350.375 60.136 352.103 59.624C353.895 59.112 355.175 58.6 355.943 58.088Z" fill="#FFE100"/>
<path d="M379.051 14.6C379.051 13.128 379.083 12.04 379.147 11.336C379.275 10.568 379.595 9.704 380.107 8.744C381.003 7.016 383.499 6.152 387.595 6.152C392.075 6.152 394.731 7.336 395.563 9.704C395.883 10.792 396.043 12.456 396.043 14.696V68.072C396.043 69.608 395.979 70.728 395.851 71.432C395.787 72.136 395.499 72.968 394.987 73.928C394.091 75.656 391.595 76.52 387.499 76.52C383.019 76.52 380.395 75.304 379.627 72.872C379.243 71.848 379.051 70.216 379.051 67.976V14.6Z" fill="#FFE100"/>
<path d="M451.035 9.128C451.675 7.976 452.604 7.208 453.82 6.82401C455.036 6.44 456.54 6.248 458.332 6.248C460.188 6.248 461.659 6.408 462.747 6.728C463.9 7.048 464.732 7.432 465.243 7.88C465.819 8.328 466.236 9.00001 466.492 9.89601C466.876 10.92 467.068 12.552 467.068 14.792V68.072C467.068 69.608 467.004 70.728 466.876 71.432C466.812 72.136 466.523 72.968 466.012 73.928C465.116 75.656 462.62 76.52 458.523 76.52C456.027 76.52 454.299 76.328 453.34 75.944C452.38 75.56 451.58 74.952 450.94 74.12C436.54 54.92 427.068 42.376 422.523 36.488V68.072C422.523 69.608 422.46 70.728 422.332 71.432C422.268 72.136 421.979 72.968 421.467 73.928C420.572 75.656 418.076 76.52 413.979 76.52C410.012 76.52 407.579 75.656 406.684 73.928C406.172 72.968 405.852 72.104 405.724 71.336C405.66 70.568 405.628 69.448 405.628 67.976V14.408C405.628 11.976 405.916 10.216 406.492 9.128C407.132 7.976 408.06 7.208 409.276 6.82401C410.492 6.44 412.059 6.248 413.979 6.248C415.9 6.248 417.404 6.44 418.492 6.82401C419.644 7.144 420.444 7.528 420.892 7.976C421.148 8.168 421.884 9 423.1 10.472C436.604 28.84 445.628 40.968 450.172 46.856V14.408C450.172 11.976 450.46 10.216 451.035 9.128Z" fill="#FFE100"/>
<path d="M520.129 8.744C520.641 7.784 521.505 7.112 522.721 6.728C523.937 6.344 525.473 6.152 527.329 6.152C529.185 6.152 530.657 6.312 531.745 6.632C532.833 6.952 533.665 7.336 534.241 7.784C534.817 8.232 535.265 8.872 535.585 9.704C535.905 10.792 536.065 12.456 536.065 14.696V67.976C536.065 69.448 536.001 70.568 535.873 71.336C535.809 72.04 535.521 72.872 535.009 73.832C534.113 75.56 531.617 76.424 527.521 76.424C523.041 76.424 520.417 75.24 519.649 72.872C519.265 71.784 519.073 70.12 519.073 67.88V48.392H493.633V67.976C493.633 69.448 493.569 70.568 493.441 71.336C493.377 72.04 493.089 72.872 492.577 73.832C491.681 75.56 489.185 76.424 485.089 76.424C480.609 76.424 477.985 75.24 477.217 72.872C476.833 71.784 476.641 70.12 476.641 67.88V14.6C476.641 13.128 476.673 12.04 476.737 11.336C476.865 10.568 477.185 9.704 477.697 8.744C478.593 7.016 481.089 6.152 485.185 6.152C489.665 6.152 492.321 7.336 493.153 9.704C493.473 10.792 493.633 12.456 493.633 14.696V34.28H519.073V14.6C519.073 13.128 519.105 12.04 519.169 11.336C519.297 10.568 519.617 9.704 520.129 8.744Z" fill="#FFE100"/>
<path d="M586.294 11.144L612.214 64.712C613.302 66.888 613.846 68.52 613.846 69.608C613.846 71.912 611.99 73.992 608.278 75.848C606.102 76.936 604.374 77.48 603.094 77.48C601.878 77.48 600.854 77.192 600.022 76.616C599.254 76.04 598.678 75.432 598.294 74.792C597.974 74.152 597.494 73.192 596.854 71.912L591.862 61.544H565.27L560.278 71.912C559.638 73.192 559.126 74.12 558.742 74.696C558.422 75.272 557.846 75.88 557.014 76.52C556.246 77.096 555.222 77.384 553.942 77.384C552.726 77.384 551.03 76.84 548.854 75.752C545.142 73.96 543.286 71.912 543.286 69.608C543.286 68.52 543.83 66.888 544.918 64.712L570.838 11.048C571.542 9.576 572.598 8.392 574.006 7.496C575.478 6.6 577.014 6.152 578.614 6.152C582.07 6.152 584.63 7.816 586.294 11.144ZM578.518 34.184L572.182 47.336H584.95L578.518 34.184Z" fill="#FFE100"/>
<path d="M619.162 66.632C617.498 64.584 616.666 62.76 616.666 61.16C616.666 59.496 618.042 57.32 620.794 54.632C622.394 53.096 624.09 52.328 625.882 52.328C627.674 52.328 630.17 53.928 633.37 57.128C634.266 58.216 635.546 59.272 637.21 60.296C638.874 61.256 640.41 61.736 641.818 61.736C647.77 61.736 650.746 59.304 650.746 54.44C650.746 52.968 649.914 51.752 648.25 50.792C646.65 49.768 644.634 49.032 642.202 48.584C639.77 48.136 637.146 47.432 634.33 46.472C631.514 45.448 628.89 44.264 626.458 42.92C624.026 41.576 621.978 39.464 620.314 36.584C618.714 33.64 617.914 30.12 617.914 26.024C617.914 20.392 619.994 15.496 624.154 11.336C628.378 7.112 634.106 5 641.338 5C645.178 5 648.666 5.512 651.802 6.536C655.002 7.496 657.21 8.488 658.426 9.512L660.826 11.336C662.81 13.192 663.802 14.76 663.802 16.04C663.802 17.32 663.034 19.08 661.498 21.32C659.322 24.52 657.082 26.12 654.778 26.12C653.434 26.12 651.77 25.48 649.786 24.2C649.594 24.072 649.21 23.752 648.634 23.24C648.122 22.728 647.642 22.312 647.194 21.992C645.85 21.16 644.122 20.744 642.01 20.744C639.962 20.744 638.234 21.256 636.826 22.28C635.482 23.24 634.81 24.616 634.81 26.408C634.81 28.136 635.61 29.544 637.21 30.632C638.874 31.72 640.922 32.456 643.354 32.84C645.786 33.224 648.442 33.832 651.322 34.664C654.202 35.432 656.858 36.392 659.29 37.544C661.722 38.696 663.738 40.712 665.338 43.592C667.002 46.408 667.834 49.896 667.834 54.056C667.834 58.216 667.002 61.896 665.338 65.096C663.674 68.232 661.498 70.664 658.81 72.392C653.626 75.784 648.09 77.48 642.202 77.48C639.194 77.48 636.346 77.128 633.658 76.424C630.97 75.656 628.794 74.728 627.13 73.64C623.738 71.592 621.37 69.608 620.026 67.688L619.162 66.632Z" fill="#FFE100"/>
<path d="M51.56 6.152C53.032 6.152 54.12 6.216 54.824 6.34401C55.592 6.408 56.424 6.696 57.32 7.208C58.28 7.72 58.952 8.584 59.336 9.8C59.72 11.016 59.912 12.648 59.912 14.696C59.912 16.744 59.72 18.376 59.336 19.592C58.952 20.808 58.28 21.672 57.32 22.184C56.36 22.632 55.496 22.92 54.728 23.048C54.024 23.112 52.904 23.144 51.368 23.144H21.992V32.84H40.904C42.44 32.84 43.56 32.904 44.264 33.032C45.032 33.096 45.896 33.384 46.856 33.896C48.52 34.856 49.352 37.384 49.352 41.48C49.352 45.96 48.136 48.616 45.704 49.448C44.68 49.768 43.048 49.928 40.808 49.928H21.992V68.072C21.992 69.608 21.928 70.728 21.8 71.432C21.736 72.136 21.448 72.968 20.936 73.928C20.04 75.656 17.544 76.52 13.448 76.52C8.968 76.52 6.344 75.304 5.576 72.872C5.192 71.848 5 70.216 5 67.976V14.6C5 11.336 5.608 9.128 6.824 7.976C8.04 6.76 10.344 6.152 13.736 6.152H51.56Z" stroke="#6A6118" stroke-width="10" mask="url(#path-2-outside-2_76_12420)"/>
<path d="M68.045 14.6C68.045 13.128 68.077 12.04 68.141 11.336C68.269 10.568 68.589 9.704 69.101 8.744C69.997 7.016 72.493 6.152 76.589 6.152C81.069 6.152 83.725 7.336 84.557 9.704C84.877 10.792 85.037 12.456 85.037 14.696V68.072C85.037 69.608 84.973 70.728 84.845 71.432C84.781 72.136 84.493 72.968 83.981 73.928C83.085 75.656 80.589 76.52 76.493 76.52C72.013 76.52 69.389 75.304 68.621 72.872C68.237 71.848 68.045 70.216 68.045 67.976V14.6Z" stroke="#6A6118" stroke-width="10" mask="url(#path-2-outside-2_76_12420)"/>
<path d="M140.029 9.128C140.669 7.976 141.597 7.208 142.813 6.82401C144.029 6.44 145.533 6.248 147.325 6.248C149.181 6.248 150.653 6.408 151.741 6.728C152.893 7.048 153.725 7.432 154.237 7.88C154.813 8.328 155.229 9.00001 155.485 9.89601C155.869 10.92 156.061 12.552 156.061 14.792V68.072C156.061 69.608 155.997 70.728 155.869 71.432C155.805 72.136 155.517 72.968 155.005 73.928C154.109 75.656 151.613 76.52 147.517 76.52C145.021 76.52 143.293 76.328 142.333 75.944C141.373 75.56 140.573 74.952 139.933 74.12C125.533 54.92 116.061 42.376 111.517 36.488V68.072C111.517 69.608 111.453 70.728 111.325 71.432C111.261 72.136 110.973 72.968 110.461 73.928C109.565 75.656 107.069 76.52 102.973 76.52C99.0052 76.52 96.5732 75.656 95.6772 73.928C95.1652 72.968 94.8452 72.104 94.7172 71.336C94.6532 70.568 94.6212 69.448 94.6212 67.976V14.408C94.6212 11.976 94.9092 10.216 95.4852 9.128C96.1252 7.976 97.0532 7.208 98.2692 6.82401C99.4853 6.44 101.053 6.248 102.973 6.248C104.893 6.248 106.397 6.44 107.485 6.82401C108.637 7.144 109.437 7.528 109.885 7.976C110.141 8.168 110.877 9 112.093 10.472C125.597 28.84 134.621 40.968 139.165 46.856V14.408C139.165 11.976 139.453 10.216 140.029 9.128Z" stroke="#6A6118" stroke-width="10" mask="url(#path-2-outside-2_76_12420)"/>
<path d="M206.243 11.144L232.163 64.712C233.251 66.888 233.795 68.52 233.795 69.608C233.795 71.912 231.939 73.992 228.227 75.848C226.051 76.936 224.323 77.48 223.043 77.48C221.827 77.48 220.803 77.192 219.971 76.616C219.203 76.04 218.627 75.432 218.243 74.792C217.923 74.152 217.443 73.192 216.803 71.912L211.811 61.544H185.219L180.227 71.912C179.587 73.192 179.075 74.12 178.691 74.696C178.371 75.272 177.795 75.88 176.963 76.52C176.195 77.096 175.171 77.384 173.891 77.384C172.675 77.384 170.979 76.84 168.803 75.752C165.091 73.96 163.235 71.912 163.235 69.608C163.235 68.52 163.779 66.888 164.867 64.712L190.787 11.048C191.491 9.576 192.547 8.392 193.955 7.496C195.427 6.6 196.963 6.152 198.563 6.152C202.019 6.152 204.579 7.816 206.243 11.144ZM198.467 34.184L192.131 47.336H204.899L198.467 34.184Z" stroke="#6A6118" stroke-width="10" mask="url(#path-2-outside-2_76_12420)"/>
<path d="M286.369 9.128C287.009 7.976 287.937 7.208 289.153 6.82401C290.369 6.44 291.873 6.248 293.665 6.248C295.521 6.248 296.993 6.408 298.081 6.728C299.233 7.048 300.065 7.432 300.577 7.88C301.153 8.328 301.569 9.00001 301.825 9.89601C302.209 10.92 302.401 12.552 302.401 14.792V68.072C302.401 69.608 302.337 70.728 302.209 71.432C302.145 72.136 301.857 72.968 301.345 73.928C300.449 75.656 297.953 76.52 293.857 76.52C291.361 76.52 289.633 76.328 288.673 75.944C287.713 75.56 286.913 74.952 286.273 74.12C271.873 54.92 262.401 42.376 257.857 36.488V68.072C257.857 69.608 257.793 70.728 257.665 71.432C257.601 72.136 257.313 72.968 256.801 73.928C255.905 75.656 253.409 76.52 249.313 76.52C245.345 76.52 242.913 75.656 242.017 73.928C241.505 72.968 241.185 72.104 241.057 71.336C240.993 70.568 240.961 69.448 240.961 67.976V14.408C240.961 11.976 241.249 10.216 241.825 9.128C242.465 7.976 243.393 7.208 244.609 6.82401C245.825 6.44 247.393 6.248 249.313 6.248C251.233 6.248 252.737 6.44 253.825 6.82401C254.977 7.144 255.777 7.528 256.225 7.976C256.481 8.168 257.217 9 258.433 10.472C271.937 28.84 280.961 40.968 285.505 46.856V14.408C285.505 11.976 285.793 10.216 286.369 9.128Z" stroke="#6A6118" stroke-width="10" mask="url(#path-2-outside-2_76_12420)"/>
<path d="M355.943 58.088L357.671 56.84C359.847 55.56 361.383 54.92 362.279 54.92C364.263 54.92 366.407 56.712 368.711 60.296C370.119 62.536 370.823 64.328 370.823 65.672C370.823 67.016 370.375 68.136 369.479 69.032C368.647 69.928 367.655 70.728 366.503 71.432C365.351 72.136 364.231 72.808 363.143 73.448C362.119 74.088 359.975 74.92 356.711 75.944C353.447 76.968 350.279 77.48 347.207 77.48C344.199 77.48 341.127 77.096 337.991 76.328C334.919 75.496 331.719 74.152 328.391 72.296C325.127 70.376 322.183 68.072 319.559 65.384C316.935 62.632 314.759 59.144 313.031 54.92C311.367 50.632 310.535 45.992 310.535 41C310.535 36.008 311.367 31.496 313.031 27.464C314.695 23.368 316.807 20.008 319.367 17.384C321.991 14.696 324.967 12.456 328.295 10.664C334.567 7.208 340.871 5.48001 347.207 5.48001C350.215 5.48001 353.255 5.96 356.327 6.92C359.463 7.816 361.831 8.744 363.431 9.704L365.735 11.048C366.887 11.752 367.783 12.328 368.423 12.776C370.087 14.12 370.919 15.656 370.919 17.384C370.919 19.048 370.247 20.808 368.903 22.664C366.407 26.12 364.167 27.848 362.183 27.848C361.031 27.848 359.399 27.144 357.287 25.736C354.599 23.56 351.015 22.472 346.535 22.472C342.375 22.472 338.279 23.912 334.247 26.792C332.327 28.2 330.727 30.184 329.447 32.744C328.167 35.304 327.527 38.216 327.527 41.48C327.527 44.68 328.167 47.56 329.447 50.12C330.727 52.68 332.359 54.696 334.343 56.168C338.247 58.984 342.311 60.392 346.535 60.392C348.519 60.392 350.375 60.136 352.103 59.624C353.895 59.112 355.175 58.6 355.943 58.088Z" stroke="#6A6118" stroke-width="10" mask="url(#path-2-outside-2_76_12420)"/>
<path d="M379.051 14.6C379.051 13.128 379.083 12.04 379.147 11.336C379.275 10.568 379.595 9.704 380.107 8.744C381.003 7.016 383.499 6.152 387.595 6.152C392.075 6.152 394.731 7.336 395.563 9.704C395.883 10.792 396.043 12.456 396.043 14.696V68.072C396.043 69.608 395.979 70.728 395.851 71.432C395.787 72.136 395.499 72.968 394.987 73.928C394.091 75.656 391.595 76.52 387.499 76.52C383.019 76.52 380.395 75.304 379.627 72.872C379.243 71.848 379.051 70.216 379.051 67.976V14.6Z" stroke="#6A6118" stroke-width="10" mask="url(#path-2-outside-2_76_12420)"/>
<path d="M451.035 9.128C451.675 7.976 452.604 7.208 453.82 6.82401C455.036 6.44 456.54 6.248 458.332 6.248C460.188 6.248 461.659 6.408 462.747 6.728C463.9 7.048 464.732 7.432 465.243 7.88C465.819 8.328 466.236 9.00001 466.492 9.89601C466.876 10.92 467.068 12.552 467.068 14.792V68.072C467.068 69.608 467.004 70.728 466.876 71.432C466.812 72.136 466.523 72.968 466.012 73.928C465.116 75.656 462.62 76.52 458.523 76.52C456.027 76.52 454.299 76.328 453.34 75.944C452.38 75.56 451.58 74.952 450.94 74.12C436.54 54.92 427.068 42.376 422.523 36.488V68.072C422.523 69.608 422.46 70.728 422.332 71.432C422.268 72.136 421.979 72.968 421.467 73.928C420.572 75.656 418.076 76.52 413.979 76.52C410.012 76.52 407.579 75.656 406.684 73.928C406.172 72.968 405.852 72.104 405.724 71.336C405.66 70.568 405.628 69.448 405.628 67.976V14.408C405.628 11.976 405.916 10.216 406.492 9.128C407.132 7.976 408.06 7.208 409.276 6.82401C410.492 6.44 412.059 6.248 413.979 6.248C415.9 6.248 417.404 6.44 418.492 6.82401C419.644 7.144 420.444 7.528 420.892 7.976C421.148 8.168 421.884 9 423.1 10.472C436.604 28.84 445.628 40.968 450.172 46.856V14.408C450.172 11.976 450.46 10.216 451.035 9.128Z" stroke="#6A6118" stroke-width="10" mask="url(#path-2-outside-2_76_12420)"/>
<path d="M520.129 8.744C520.641 7.784 521.505 7.112 522.721 6.728C523.937 6.344 525.473 6.152 527.329 6.152C529.185 6.152 530.657 6.312 531.745 6.632C532.833 6.952 533.665 7.336 534.241 7.784C534.817 8.232 535.265 8.872 535.585 9.704C535.905 10.792 536.065 12.456 536.065 14.696V67.976C536.065 69.448 536.001 70.568 535.873 71.336C535.809 72.04 535.521 72.872 535.009 73.832C534.113 75.56 531.617 76.424 527.521 76.424C523.041 76.424 520.417 75.24 519.649 72.872C519.265 71.784 519.073 70.12 519.073 67.88V48.392H493.633V67.976C493.633 69.448 493.569 70.568 493.441 71.336C493.377 72.04 493.089 72.872 492.577 73.832C491.681 75.56 489.185 76.424 485.089 76.424C480.609 76.424 477.985 75.24 477.217 72.872C476.833 71.784 476.641 70.12 476.641 67.88V14.6C476.641 13.128 476.673 12.04 476.737 11.336C476.865 10.568 477.185 9.704 477.697 8.744C478.593 7.016 481.089 6.152 485.185 6.152C489.665 6.152 492.321 7.336 493.153 9.704C493.473 10.792 493.633 12.456 493.633 14.696V34.28H519.073V14.6C519.073 13.128 519.105 12.04 519.169 11.336C519.297 10.568 519.617 9.704 520.129 8.744Z" stroke="#6A6118" stroke-width="10" mask="url(#path-2-outside-2_76_12420)"/>
<path d="M586.294 11.144L612.214 64.712C613.302 66.888 613.846 68.52 613.846 69.608C613.846 71.912 611.99 73.992 608.278 75.848C606.102 76.936 604.374 77.48 603.094 77.48C601.878 77.48 600.854 77.192 600.022 76.616C599.254 76.04 598.678 75.432 598.294 74.792C597.974 74.152 597.494 73.192 596.854 71.912L591.862 61.544H565.27L560.278 71.912C559.638 73.192 559.126 74.12 558.742 74.696C558.422 75.272 557.846 75.88 557.014 76.52C556.246 77.096 555.222 77.384 553.942 77.384C552.726 77.384 551.03 76.84 548.854 75.752C545.142 73.96 543.286 71.912 543.286 69.608C543.286 68.52 543.83 66.888 544.918 64.712L570.838 11.048C571.542 9.576 572.598 8.392 574.006 7.496C575.478 6.6 577.014 6.152 578.614 6.152C582.07 6.152 584.63 7.816 586.294 11.144ZM578.518 34.184L572.182 47.336H584.95L578.518 34.184Z" stroke="#6A6118" stroke-width="10" mask="url(#path-2-outside-2_76_12420)"/>
<path d="M619.162 66.632C617.498 64.584 616.666 62.76 616.666 61.16C616.666 59.496 618.042 57.32 620.794 54.632C622.394 53.096 624.09 52.328 625.882 52.328C627.674 52.328 630.17 53.928 633.37 57.128C634.266 58.216 635.546 59.272 637.21 60.296C638.874 61.256 640.41 61.736 641.818 61.736C647.77 61.736 650.746 59.304 650.746 54.44C650.746 52.968 649.914 51.752 648.25 50.792C646.65 49.768 644.634 49.032 642.202 48.584C639.77 48.136 637.146 47.432 634.33 46.472C631.514 45.448 628.89 44.264 626.458 42.92C624.026 41.576 621.978 39.464 620.314 36.584C618.714 33.64 617.914 30.12 617.914 26.024C617.914 20.392 619.994 15.496 624.154 11.336C628.378 7.112 634.106 5 641.338 5C645.178 5 648.666 5.512 651.802 6.536C655.002 7.496 657.21 8.488 658.426 9.512L660.826 11.336C662.81 13.192 663.802 14.76 663.802 16.04C663.802 17.32 663.034 19.08 661.498 21.32C659.322 24.52 657.082 26.12 654.778 26.12C653.434 26.12 651.77 25.48 649.786 24.2C649.594 24.072 649.21 23.752 648.634 23.24C648.122 22.728 647.642 22.312 647.194 21.992C645.85 21.16 644.122 20.744 642.01 20.744C639.962 20.744 638.234 21.256 636.826 22.28C635.482 23.24 634.81 24.616 634.81 26.408C634.81 28.136 635.61 29.544 637.21 30.632C638.874 31.72 640.922 32.456 643.354 32.84C645.786 33.224 648.442 33.832 651.322 34.664C654.202 35.432 656.858 36.392 659.29 37.544C661.722 38.696 663.738 40.712 665.338 43.592C667.002 46.408 667.834 49.896 667.834 54.056C667.834 58.216 667.002 61.896 665.338 65.096C663.674 68.232 661.498 70.664 658.81 72.392C653.626 75.784 648.09 77.48 642.202 77.48C639.194 77.48 636.346 77.128 633.658 76.424C630.97 75.656 628.794 74.728 627.13 73.64C623.738 71.592 621.37 69.608 620.026 67.688L619.162 66.632Z" stroke="#6A6118" stroke-width="10" mask="url(#path-2-outside-2_76_12420)"/>
<path d="M295.698 15.52C295.698 14.4154 296.593 13.52 297.698 13.52C298.802 13.52 299.698 14.4154 299.698 15.52V71.52C299.698 72.6246 298.802 73.52 297.698 73.52C296.593 73.52 295.698 72.6246 295.698 71.52V15.52Z" fill="white"/>
<path d="M243.698 13.52C243.698 12.4154 244.593 11.52 245.698 11.52C246.802 11.52 247.698 12.4154 247.698 13.52V68.52C247.698 69.6246 246.802 70.52 245.698 70.52C244.593 70.52 243.698 69.6246 243.698 68.52V13.52Z" fill="white"/>
<path d="M261.456 38.0633C260.785 37.1857 260.953 35.9305 261.83 35.2597C262.708 34.589 263.963 34.7567 264.634 35.6343L276.947 51.7442C277.618 52.6218 277.45 53.877 276.572 54.5477C275.695 55.2185 274.439 55.0508 273.769 54.1732L261.456 38.0633Z" fill="white"/>
<path d="M280.912 62.538C280.241 61.6604 280.409 60.4052 281.287 59.7345C282.164 59.0637 283.419 59.2314 284.09 60.109L287.97 65.1856C288.641 66.0632 288.473 67.3184 287.596 67.9892C286.718 68.6599 285.463 68.4922 284.792 67.6146L280.912 62.538Z" fill="white"/>
<path d="M255.912 17.538C255.241 16.6604 255.409 15.4052 256.287 14.7345C257.164 14.0637 258.419 14.2314 259.09 15.109L262.97 20.1856C263.641 21.0632 263.473 22.3184 262.596 22.9892C261.718 23.6599 260.463 23.4922 259.792 22.6146L255.912 17.538Z" fill="white"/>
<path d="M649.592 11.9496C648.546 11.5962 647.984 10.4614 648.337 9.41489C648.691 8.36837 649.826 7.80648 650.872 8.15986L656.926 10.2041C657.972 10.5574 658.534 11.6923 658.181 12.7388C657.828 13.7853 656.693 14.3472 655.646 13.9938L649.592 11.9496Z" fill="white"/>
<path d="M650.592 41.9496C649.546 41.5962 648.984 40.4614 649.337 39.4149C649.691 38.3684 650.826 37.8065 651.872 38.1599L657.926 40.2041C658.972 40.5574 659.534 41.6923 659.181 42.7388C658.828 43.7853 657.693 44.3472 656.646 43.9938L650.592 41.9496Z" fill="white"/>
<path d="M623.536 36.4861C622.704 35.7605 622.617 34.4972 623.342 33.6644C624.068 32.8316 625.331 32.7447 626.164 33.4703L630.982 37.6676C631.815 38.3932 631.901 39.6566 631.176 40.4894C630.45 41.3222 629.187 41.4091 628.354 40.6835L623.536 36.4861Z" fill="white"/>
<path d="M620.205 63.8497C619.373 63.1241 619.286 61.8607 620.011 61.0279C620.737 60.1951 622 60.1082 622.833 60.8338L631.054 67.9961C631.887 68.7217 631.973 69.9851 631.248 70.8179C630.522 71.6507 629.259 71.7376 628.426 71.012L620.205 63.8497Z" fill="white"/>
<path d="M388.698 13.52C388.698 12.4154 389.593 11.52 390.698 11.52C391.802 11.52 392.698 12.4154 392.698 13.52V69.52C392.698 70.6245 391.802 71.52 390.698 71.52C389.593 71.52 388.698 70.6245 388.698 69.52V13.52Z" fill="white"/>
<path d="M586.763 28.0166C586.269 27.0289 586.669 25.8274 587.656 25.3329C588.644 24.8384 589.846 25.2382 590.34 26.2259L611.393 68.2765C611.887 69.2642 611.487 70.4657 610.5 70.9602C609.512 71.4547 608.31 71.0549 607.816 70.0672L586.763 28.0166Z" fill="white"/>
<path d="M579.593 13.0991C579.098 12.1114 579.498 10.9099 580.486 10.4154C581.474 9.9209 582.675 10.3207 583.17 11.3084L585.574 16.1102C586.068 17.0979 585.668 18.2995 584.681 18.794C583.693 19.2885 582.491 18.8887 581.997 17.901L579.593 13.0991Z" fill="white"/>
<path d="M481.698 72.52C480.593 72.52 479.698 71.6245 479.698 70.52C479.698 69.4154 480.593 68.52 481.698 68.52H487.698C488.802 68.52 489.698 69.4154 489.698 70.52C489.698 71.6245 488.802 72.52 487.698 72.52H481.698Z" fill="white"/>
<path d="M459.698 14.52C459.698 13.4154 460.593 12.52 461.698 12.52C462.802 12.52 463.698 13.4154 463.698 14.52V70.52C463.698 71.6245 462.802 72.52 461.698 72.52C460.593 72.52 459.698 71.6245 459.698 70.52V14.52Z" fill="white"/>
<path d="M529.698 13.52C529.698 12.4154 530.593 11.52 531.698 11.52C532.802 11.52 533.698 12.4154 533.698 13.52V69.52C533.698 70.6245 532.802 71.52 531.698 71.52C530.593 71.52 529.698 70.6245 529.698 69.52V13.52Z" fill="white"/>
<path d="M407.698 12.52C407.698 11.4154 408.593 10.52 409.698 10.52C410.802 10.52 411.698 11.4154 411.698 12.52V67.52C411.698 68.6245 410.802 69.52 409.698 69.52C408.593 69.52 407.698 68.6245 407.698 67.52V12.52Z" fill="white"/>
<path d="M425.456 37.0632C424.785 36.1856 424.953 34.9305 425.83 34.2597C426.708 33.589 427.963 33.7567 428.634 34.6343L440.947 50.7442C441.618 51.6218 441.45 52.877 440.572 53.5477C439.695 54.2185 438.439 54.0508 437.769 53.1732L425.456 37.0632Z" fill="white"/>
<path d="M444.912 61.538C444.241 60.6604 444.409 59.4052 445.287 58.7344C446.164 58.0637 447.419 58.2314 448.09 59.109L451.97 64.1856C452.641 65.0632 452.473 66.3184 451.596 66.9891C450.718 67.6599 449.463 67.4922 448.792 66.6146L444.912 61.538Z" fill="white"/>
<path d="M316.912 58.538C316.241 57.6604 316.409 56.4052 317.287 55.7344C318.164 55.0637 319.419 55.2314 320.09 56.109L323.97 61.1856C324.641 62.0632 324.473 63.3184 323.596 63.9891C322.718 64.6599 321.463 64.4922 320.792 63.6146L316.912 58.538Z" fill="white"/>
<path d="M360.912 61.538C360.241 60.6604 360.409 59.4052 361.287 58.7344C362.164 58.0637 363.419 58.2314 364.09 59.109L367.97 64.1856C368.641 65.0632 368.473 66.3184 367.596 66.9891C366.718 67.6599 365.463 67.4922 364.792 66.6146L360.912 61.538Z" fill="white"/>
<path d="M353.592 11.9496C352.546 11.5962 351.984 10.4614 352.337 9.41489C352.691 8.36837 353.826 7.80648 354.872 8.15986L360.926 10.2041C361.972 10.5574 362.534 11.6923 362.181 12.7388C361.828 13.7853 360.693 14.3472 359.646 13.9938L353.592 11.9496Z" fill="white"/>
<path d="M78.6975 12.52C78.6975 11.4154 79.5929 10.52 80.6975 10.52C81.8021 10.52 82.6975 11.4154 82.6975 12.52V68.52C82.6975 69.6246 81.8021 70.52 80.6975 70.52C79.5929 70.52 78.6975 69.6246 78.6975 68.52V12.52Z" fill="white"/>
<path d="M7.69751 13.52C7.69751 12.4154 8.59294 11.52 9.69751 11.52C10.8021 11.52 11.6975 12.4154 11.6975 13.52V69.52C11.6975 70.6246 10.8021 71.52 9.69751 71.52C8.59294 71.52 7.69751 70.6246 7.69751 69.52V13.52Z" fill="white"/>
<path d="M149.698 15.52C149.698 14.4154 150.593 13.52 151.698 13.52C152.802 13.52 153.698 14.4154 153.698 15.52V71.52C153.698 72.6246 152.802 73.52 151.698 73.52C150.593 73.52 149.698 72.6246 149.698 71.52V15.52Z" fill="white"/>
<path d="M97.6975 13.52C97.6975 12.4154 98.5929 11.52 99.6975 11.52C100.802 11.52 101.698 12.4154 101.698 13.52V68.52C101.698 69.6246 100.802 70.52 99.6975 70.52C98.5929 70.52 97.6975 69.6246 97.6975 68.52V13.52Z" fill="white"/>
<path d="M115.456 38.0633C114.785 37.1857 114.953 35.9305 115.83 35.2597C116.708 34.589 117.963 34.7567 118.634 35.6343L130.947 51.7442C131.618 52.6218 131.45 53.877 130.572 54.5477C129.695 55.2185 128.439 55.0508 127.769 54.1732L115.456 38.0633Z" fill="white"/>
<path d="M134.912 62.538C134.241 61.6604 134.409 60.4052 135.287 59.7345C136.164 59.0637 137.419 59.2314 138.09 60.109L141.97 65.1857C142.641 66.0633 142.473 67.3184 141.596 67.9892C140.718 68.6599 139.463 68.4922 138.792 67.6146L134.912 62.538Z" fill="white"/>
<path d="M109.912 17.538C109.241 16.6604 109.409 15.4052 110.287 14.7345C111.164 14.0637 112.419 14.2314 113.09 15.109L116.97 20.1857C117.641 21.0633 117.473 22.3184 116.596 22.9892C115.718 23.6599 114.463 23.4922 113.792 22.6146L109.912 17.538Z" fill="white"/>
<path d="M207.763 27.0167C207.269 26.029 207.669 24.8274 208.656 24.3329C209.644 23.8384 210.846 24.2382 211.34 25.2259L232.393 67.2765C232.887 68.2642 232.487 69.4658 231.5 69.9603C230.512 70.4548 229.311 70.0549 228.816 69.0672L207.763 27.0167Z" fill="white"/>
<path d="M200.593 12.0992C200.098 11.1115 200.498 9.90992 201.486 9.41543C202.474 8.92093 203.675 9.32075 204.17 10.3085L206.574 15.1103C207.068 16.098 206.668 17.2995 205.681 17.794C204.693 18.2885 203.491 17.8887 202.997 16.901L200.593 12.0992Z" fill="white"/>
<path d="M167.429 70.9839C166.473 70.4307 166.146 69.2071 166.699 68.2511C167.252 67.2951 168.476 66.9685 169.432 67.5217L174.08 70.2113C175.036 70.7645 175.362 71.988 174.809 72.9441C174.256 73.9001 173.033 74.2267 172.076 73.6734L167.429 70.9839Z" fill="white"/>
<path d="M43.7542 38.9126C43.7542 37.808 44.6496 36.9126 45.7542 36.9126C46.8587 36.9126 47.7542 37.808 47.7542 38.9126V44.2826C47.7542 45.3872 46.8587 46.2826 45.7542 46.2826C44.6496 46.2826 43.7542 45.3872 43.7542 44.2826V38.9126Z" fill="white"/>
<path d="M54.6975 11.52C54.6975 10.4154 55.5929 9.52001 56.6975 9.52001C57.8021 9.52001 58.6975 10.4154 58.6975 11.52V16.89C58.6975 17.9946 57.8021 18.89 56.6975 18.89C55.5929 18.89 54.6975 17.9946 54.6975 16.89V11.52Z" fill="white"/>
</svg>
