<svg width="24" height="24" viewBox="0 0 24 24" fill="none" xmlns="http://www.w3.org/2000/svg">
<path d="M1.5 7.20606C1.5 6.9383 1.57167 6.67542 1.70757 6.44472C1.84348 6.21401 2.03865 6.02389 2.27285 5.89409C2.50704 5.76429 2.77171 5.69954 3.03937 5.70657C3.30704 5.7136 3.56794 5.79215 3.795 5.93406L11.4645 10.7281C11.6802 10.8629 11.8581 11.0504 11.9815 11.2729C12.1048 11.4954 12.1695 11.7456 12.1695 12.0001C12.1695 12.2545 12.1048 12.5047 11.9815 12.7272C11.8581 12.9497 11.6802 13.1372 11.4645 13.2721L3.795 18.0661C3.56794 18.208 3.30704 18.2865 3.03937 18.2935C2.77171 18.3006 2.50704 18.2358 2.27285 18.106C2.03865 17.9762 1.84348 17.7861 1.70757 17.5554C1.57167 17.3247 1.5 17.0618 1.5 16.7941V7.20606ZM20.25 6.75006C20.25 6.55115 20.329 6.36038 20.4697 6.21973C20.6103 6.07908 20.8011 6.00006 21 6.00006H21.75C21.9489 6.00006 22.1397 6.07908 22.2803 6.21973C22.421 6.36038 22.5 6.55115 22.5 6.75006V17.2501C22.5 17.449 22.421 17.6397 22.2803 17.7804C22.1397 17.921 21.9489 18.0001 21.75 18.0001H21C20.8011 18.0001 20.6103 17.921 20.4697 17.7804C20.329 17.6397 20.25 17.449 20.25 17.2501V6.75006ZM15.75 6.00006C15.5511 6.00006 15.3603 6.07908 15.2197 6.21973C15.079 6.36038 15 6.55115 15 6.75006V17.2501C15 17.449 15.079 17.6397 15.2197 17.7804C15.3603 17.921 15.5511 18.0001 15.75 18.0001H16.5C16.6989 18.0001 16.8897 17.921 17.0303 17.7804C17.171 17.6397 17.25 17.449 17.25 17.2501V6.75006C17.25 6.55115 17.171 6.36038 17.0303 6.21973C16.8897 6.07908 16.6989 6.00006 16.5 6.00006H15.75Z" fill="black"/>
</svg>
