<svg width="96" height="96" viewBox="0 0 96 96" fill="none" xmlns="http://www.w3.org/2000/svg">
<g clip-path="url(#clip0_591_530)">
<rect width="96" height="96" rx="48" fill="#FFE100"/>
</g>
<rect x="3.5" y="3.5" width="89" height="89" rx="44.5" stroke="#FA912C" stroke-width="7"/>
<path d="M29.3333 56.0002C29.3333 45.6908 37.3919 37.3335 47.3333 37.3335H48.6666C58.6079 37.3335 66.6666 45.6908 66.6666 56.0002C66.6666 66.3095 58.6079 74.6668 48.6666 74.6668H47.3333C37.3919 74.6668 29.3333 66.3095 29.3333 56.0002Z" stroke="#FA912C" stroke-width="5" stroke-linecap="round" stroke-linejoin="round"/>
<path d="M49.3333 64.0002V50.5282C49.3333 48.9975 49.3333 48.2295 48.72 48.0402C47.368 47.6215 45.3333 50.6642 45.3333 50.6642M49.3333 64.0002L45.3333 63.9975M49.3333 64.0002L53.3333 63.9975M52.16 21.3335L45.3333 37.0615M64 21.3335L56.4773 38.6668M43.84 21.3335L48 30.9175M32 21.3335L39.5227 38.6668" stroke="#FA912C" stroke-width="5" stroke-linecap="round" stroke-linejoin="round"/>
<defs>
<clipPath id="clip0_591_530">
<rect width="96" height="96" rx="48" fill="white"/>
</clipPath>
</defs>
</svg>
