<svg width="96" height="96" viewBox="0 0 96 96" fill="none" xmlns="http://www.w3.org/2000/svg">
<g clip-path="url(#clip0_591_429)">
<rect width="96" height="96" rx="48" fill="#D9D9D9"/>
</g>
<rect x="3.5" y="3.5" width="89" height="89" rx="44.5" stroke="#B8B8B8" stroke-width="7"/>
<path d="M53.732 61.324C52.844 61.324 52.208 61.192 51.824 60.928C51.44 60.664 51.2 60.316 51.104 59.884C51.032 59.452 50.996 59.008 50.996 58.552V53.944H41.348C40.484 53.944 39.86 53.812 39.476 53.548C39.092 53.284 38.852 52.948 38.756 52.54C38.684 52.108 38.648 51.664 38.648 51.208C38.648 50.968 38.648 50.776 38.648 50.632C38.672 50.464 38.708 50.308 38.756 50.164L41.888 38.176C42.176 37.072 42.56 36.412 43.04 36.196C43.544 35.956 44.288 35.956 45.272 36.196C46.04 36.388 46.628 36.676 47.036 37.06C47.444 37.444 47.576 37.924 47.432 38.5L44.732 48.832H50.996V38.68C50.996 38.248 51.044 37.84 51.14 37.456C51.236 37.072 51.476 36.76 51.86 36.52C52.244 36.256 52.892 36.124 53.804 36.124C54.668 36.124 55.292 36.256 55.676 36.52C56.06 36.784 56.288 37.132 56.36 37.564C56.456 37.972 56.504 38.416 56.504 38.896V58.588C56.504 59.068 56.456 59.524 56.36 59.956C56.264 60.364 56.024 60.7 55.64 60.964C55.256 61.204 54.62 61.324 53.732 61.324Z" fill="#B8B8B8"/>
<defs>
<clipPath id="clip0_591_429">
<rect width="96" height="96" rx="48" fill="white"/>
</clipPath>
</defs>
</svg>
