<svg width="96" height="96" viewBox="0 0 96 96" fill="none" xmlns="http://www.w3.org/2000/svg">
<g clip-path="url(#clip0_591_625)">
<rect width="96" height="96" rx="48" fill="#D9D9D9"/>
</g>
<rect x="3.5" y="3.5" width="89" height="89" rx="44.5" stroke="#B8B8B8" stroke-width="7"/>
<path d="M46.712 61.72C45.68 61.72 44.756 61.612 43.94 61.396C43.148 61.18 42.464 60.928 41.888 60.64C41.336 60.328 40.88 60.052 40.52 59.812C40.184 59.548 39.956 59.368 39.836 59.272C39.5 59.008 39.212 58.732 38.972 58.444C38.756 58.156 38.648 57.82 38.648 57.436C38.648 57.124 38.732 56.8 38.9 56.464C39.068 56.128 39.344 55.768 39.728 55.384C40.04 55.024 40.352 54.76 40.664 54.592C40.976 54.4 41.288 54.304 41.6 54.304C41.888 54.304 42.188 54.376 42.5 54.52C42.812 54.664 43.196 54.928 43.652 55.312C43.748 55.384 43.892 55.492 44.084 55.636C44.3 55.78 44.588 55.912 44.948 56.032C45.332 56.152 45.836 56.212 46.46 56.212C47.132 56.212 47.696 56.092 48.152 55.852C48.632 55.612 49.004 55.276 49.268 54.844C49.532 54.388 49.664 53.848 49.664 53.224C49.664 52.648 49.52 52.132 49.232 51.676C48.968 51.22 48.608 50.872 48.152 50.632C47.696 50.368 47.18 50.236 46.604 50.236C46.268 50.236 45.968 50.272 45.704 50.344C45.44 50.416 45.212 50.512 45.02 50.632C44.852 50.752 44.72 50.86 44.624 50.956C44.408 51.148 44.168 51.328 43.904 51.496C43.664 51.64 43.352 51.712 42.968 51.712C42.656 51.736 42.332 51.712 41.996 51.64C41.66 51.544 41.288 51.388 40.88 51.172C40.232 50.836 39.776 50.536 39.512 50.272C39.248 50.008 39.116 49.696 39.116 49.336L40.52 38.86C40.568 38.524 40.652 38.14 40.772 37.708C40.892 37.276 41.132 36.904 41.492 36.592C41.876 36.256 42.464 36.088 43.256 36.088L51.86 36.124C52.34 36.124 52.784 36.172 53.192 36.268C53.6 36.364 53.924 36.604 54.164 36.988C54.428 37.372 54.56 38.02 54.56 38.932C54.56 39.772 54.44 40.384 54.2 40.768C53.96 41.128 53.636 41.344 53.228 41.416C52.844 41.488 52.436 41.524 52.004 41.524H45.668L45.164 45.16C45.308 45.064 45.464 44.992 45.632 44.944C45.8 44.896 45.968 44.86 46.136 44.836C46.304 44.788 46.472 44.764 46.64 44.764H46.856C47.936 44.764 48.968 44.98 49.952 45.412C50.96 45.844 51.848 46.444 52.616 47.212C53.408 47.98 54.032 48.856 54.488 49.84C54.944 50.824 55.172 51.868 55.172 52.972C55.172 54.628 54.8 56.116 54.056 57.436C53.312 58.756 52.292 59.8 50.996 60.568C49.724 61.336 48.296 61.72 46.712 61.72Z" fill="#B8B8B8"/>
<defs>
<clipPath id="clip0_591_625">
<rect width="96" height="96" rx="48" fill="white"/>
</clipPath>
</defs>
</svg>
