<svg width="96" height="96" viewBox="0 0 96 96" fill="none" xmlns="http://www.w3.org/2000/svg">
<g clip-path="url(#clip0_591_568)">
<rect width="96" height="96" rx="48" fill="#FA8B3B"/>
</g>
<rect x="3.5" y="3.5" width="89" height="89" rx="44.5" stroke="#B75915" stroke-width="7"/>
<path d="M29.3333 55.9997C29.3333 45.6903 37.3919 37.333 47.3333 37.333H48.6666C58.6079 37.333 66.6666 45.6903 66.6666 55.9997C66.6666 66.309 58.6079 74.6663 48.6666 74.6663H47.3333C37.3919 74.6663 29.3333 66.309 29.3333 55.9997Z" stroke="#B75915" stroke-width="5" stroke-linecap="round" stroke-linejoin="round"/>
<path d="M44 50.981C44.2133 48.8877 45.6187 47.9997 47.088 47.9997H48.864C50.3307 47.9997 51.736 48.8877 51.9493 50.981C52.0143 51.6586 52.0143 52.3408 51.9493 53.0183C51.7733 54.7463 50.5893 55.9997 49.3093 55.9997M49.3093 55.9997C50.5893 55.9997 51.7733 57.253 51.9493 58.981C52.0143 59.6586 52.0143 60.3408 51.9493 61.0183C51.736 63.1117 50.3307 63.9997 48.864 63.9997H47.088C45.6187 63.9997 44.2133 63.1117 44 61.0183M49.3093 55.9997H49.1493M52.16 21.333L45.3333 37.061M64 21.333L56.4773 38.6663M43.84 21.333L48 30.917M32 21.333L39.5227 38.6663" stroke="#B75915" stroke-width="5" stroke-linecap="round" stroke-linejoin="round"/>
<defs>
<clipPath id="clip0_591_568">
<rect width="96" height="96" rx="48" fill="white"/>
</clipPath>
</defs>
</svg>
