<svg width="361" height="24" viewBox="0 0 361 24" fill="none" xmlns="http://www.w3.org/2000/svg">
<path d="M9.49613 23.48C8.00279 23.48 6.66946 23.2134 5.49613 22.68C4.34413 22.1254 3.37346 21.368 2.58413 20.408C1.79479 19.4267 1.19746 18.3174 0.792128 17.08C0.386795 15.8214 0.184128 14.488 0.184128 13.08V2.87203C0.184128 2.50936 0.216128 2.18936 0.280128 1.91203C0.365461 1.61336 0.536128 1.3787 0.792128 1.20803C1.06946 1.01603 1.51746 0.920029 2.13613 0.920029C2.75479 0.920029 3.19213 1.01603 3.44813 1.20803C3.72546 1.3787 3.89613 1.61336 3.96013 1.91203C4.04546 2.18936 4.08813 2.52003 4.08813 2.90403V13.08C4.08813 14.2534 4.28013 15.3414 4.66413 16.344C5.06946 17.3254 5.67746 18.1147 6.48813 18.712C7.2988 19.3094 8.33346 19.608 9.59213 19.608C10.7228 19.608 11.6935 19.3414 12.5041 18.808C13.3148 18.2747 13.9335 17.5174 14.3601 16.536C14.8081 15.5547 15.0321 14.392 15.0321 13.048V2.71203C15.0321 2.3707 15.0641 2.07203 15.1281 1.81603C15.2135 1.56003 15.3948 1.3467 15.6721 1.17603C15.9495 1.00536 16.3868 0.920029 16.9841 0.920029C17.6028 0.920029 18.0401 1.01603 18.2961 1.20803C18.5735 1.3787 18.7441 1.61336 18.8081 1.91203C18.8721 2.2107 18.9041 2.54136 18.9041 2.90403V13.144C18.9041 14.552 18.7015 15.8854 18.2961 17.144C17.8908 18.3814 17.2828 19.48 16.4721 20.44C15.6615 21.3787 14.6695 22.1254 13.4961 22.68C12.3441 23.2134 11.0108 23.48 9.49613 23.48Z" fill="#1D1D1D"/>
<path d="M24.2856 23.288C23.7096 23.288 23.283 23.2027 23.0056 23.032C22.7496 22.8614 22.5896 22.6267 22.5256 22.328C22.4616 22.0294 22.4296 21.7094 22.4296 21.368V9.40003C22.4296 9.0587 22.4616 8.74936 22.5256 8.47203C22.5896 8.1947 22.7603 7.9707 23.0376 7.80003C23.315 7.62936 23.7523 7.54403 24.3496 7.54403C24.9683 7.54403 25.4163 7.67203 25.6936 7.92803C25.9923 8.18403 26.1416 8.58936 26.1416 9.14403L25.8536 10.04C25.9603 9.80536 26.1416 9.54936 26.3976 9.27203C26.6536 8.9947 26.963 8.71736 27.3256 8.44003C27.7096 8.1627 28.1363 7.9387 28.6056 7.76803C29.075 7.59736 29.5656 7.51203 30.0776 7.51203C30.7816 7.51203 31.4216 7.62936 31.9976 7.86403C32.595 8.0987 33.1176 8.44003 33.5656 8.88803C34.035 9.33603 34.4403 9.88003 34.7816 10.52C35.1443 9.96536 35.5496 9.46403 35.9976 9.01603C36.4456 8.5467 36.9683 8.18403 37.5656 7.92803C38.163 7.6507 38.835 7.51203 39.5816 7.51203C40.819 7.51203 41.8536 7.82136 42.6856 8.44003C43.539 9.0587 44.179 9.94403 44.6056 11.096C45.0536 12.2267 45.2776 13.5814 45.2776 15.16V21.368C45.2776 21.7307 45.235 22.0614 45.1496 22.36C45.0856 22.6374 44.915 22.8614 44.6376 23.032C44.3816 23.2027 43.955 23.288 43.3576 23.288C42.7603 23.288 42.323 23.192 42.0456 23C41.7683 22.8294 41.5976 22.6054 41.5336 22.328C41.4696 22.0294 41.4376 21.6987 41.4376 21.336V15.128C41.4376 14.3387 41.3416 13.656 41.1496 13.08C40.9576 12.504 40.6696 12.056 40.2856 11.736C39.923 11.416 39.443 11.256 38.8456 11.256C38.2056 11.256 37.651 11.416 37.1816 11.736C36.7336 12.0347 36.3816 12.472 36.1256 13.048C35.8696 13.624 35.7416 14.328 35.7416 15.16V21.4C35.7416 21.7627 35.6883 22.104 35.5816 22.424C35.475 22.7227 35.2616 22.9467 34.9416 23.096C34.643 23.2667 34.2056 23.3307 33.6296 23.288C33.0963 23.2667 32.7016 23.16 32.4456 22.968C32.211 22.776 32.0616 22.5414 31.9976 22.264C31.955 21.9654 31.9336 21.656 31.9336 21.336V15.128C31.9336 14.3387 31.8376 13.656 31.6456 13.08C31.4536 12.4827 31.1656 12.0347 30.7816 11.736C30.419 11.416 29.9283 11.256 29.3096 11.256C28.6483 11.256 28.083 11.4267 27.6136 11.768C27.1656 12.1094 26.8243 12.568 26.5896 13.144C26.355 13.72 26.2376 14.3814 26.2376 15.128V21.4C26.2376 21.7414 26.195 22.0614 26.1096 22.36C26.0456 22.6587 25.875 22.8827 25.5976 23.032C25.3416 23.2027 24.9043 23.288 24.2856 23.288Z" fill="#1D1D1D"/>
<path d="M61.6121 23.256C60.9935 23.256 60.5348 23.1387 60.2361 22.904C59.9375 22.6694 59.7881 22.3494 59.7881 21.944L60.0121 20.888C59.8415 21.1654 59.5535 21.496 59.1481 21.88C58.7428 22.2427 58.2095 22.5734 57.5481 22.872C56.8868 23.1494 56.0868 23.288 55.1481 23.288C54.1455 23.288 53.1961 23.0854 52.3001 22.68C51.4255 22.2534 50.6468 21.6774 49.9641 20.952C49.3028 20.2054 48.7695 19.3627 48.3641 18.424C47.9801 17.464 47.7881 16.44 47.7881 15.352C47.7881 14.3067 47.9801 13.3254 48.3641 12.408C48.7695 11.4694 49.3135 10.6374 49.9961 9.91203C50.6788 9.1867 51.4575 8.62136 52.3321 8.21603C53.2281 7.78936 54.1668 7.57603 55.1481 7.57603C56.0228 7.57603 56.7588 7.69336 57.3561 7.92803C57.9748 8.1627 58.4975 8.46136 58.9241 8.82403C59.3508 9.16536 59.7028 9.52803 59.9801 9.91203L59.7881 8.98403C59.7881 8.5147 59.9375 8.1627 60.2361 7.92803C60.5348 7.67203 61.0041 7.54403 61.6441 7.54403C62.2415 7.54403 62.6681 7.64003 62.9241 7.83203C63.1801 8.0027 63.3401 8.24803 63.4041 8.56803C63.4681 8.8667 63.5001 9.20803 63.5001 9.59203V21.304C63.5001 21.6667 63.4681 21.9974 63.4041 22.296C63.3401 22.5947 63.1695 22.8294 62.8921 23C62.6361 23.1707 62.2095 23.256 61.6121 23.256ZM55.7241 19.544C56.4495 19.544 57.1001 19.3627 57.6761 19C58.2521 18.6374 58.7108 18.1467 59.0521 17.528C59.4148 16.888 59.5961 16.184 59.5961 15.416C59.5961 14.584 59.4148 13.8587 59.0521 13.24C58.6895 12.6214 58.2095 12.1414 57.6121 11.8C57.0361 11.4374 56.3855 11.256 55.6601 11.256C54.8708 11.256 54.1668 11.448 53.5481 11.832C52.9295 12.1947 52.4388 12.696 52.0761 13.336C51.7348 13.9547 51.5641 14.6587 51.5641 15.448C51.5641 16.216 51.7455 16.9094 52.1081 17.528C52.4708 18.1467 52.9615 18.6374 53.5801 19C54.2201 19.3627 54.9348 19.544 55.7241 19.544Z" fill="#1D1D1D"/>
<path d="M87.4559 23.256C86.8372 23.256 86.3785 23.1387 86.0799 22.904C85.7812 22.6694 85.6319 22.3494 85.6319 21.944L85.8559 20.888C85.6852 21.1654 85.3972 21.496 84.9919 21.88C84.5865 22.2427 84.0532 22.5734 83.3919 22.872C82.7305 23.1494 81.9305 23.288 80.9919 23.288C79.9892 23.288 79.0399 23.0854 78.1439 22.68C77.2692 22.2534 76.4905 21.6774 75.8079 20.952C75.1465 20.2054 74.6132 19.3627 74.2079 18.424C73.8239 17.464 73.6319 16.44 73.6319 15.352C73.6319 14.3067 73.8239 13.3254 74.2079 12.408C74.6132 11.4694 75.1572 10.6374 75.8399 9.91203C76.5225 9.1867 77.3012 8.62136 78.1759 8.21603C79.0719 7.78936 80.0105 7.57603 80.9919 7.57603C81.8665 7.57603 82.6025 7.69336 83.1999 7.92803C83.8185 8.1627 84.3412 8.46136 84.7679 8.82403C85.1945 9.16536 85.5465 9.52803 85.8239 9.91203L85.6319 8.98403C85.6319 8.5147 85.7812 8.1627 86.0799 7.92803C86.3785 7.67203 86.8479 7.54403 87.4879 7.54403C88.0852 7.54403 88.5119 7.64003 88.7679 7.83203C89.0239 8.0027 89.1839 8.24803 89.2479 8.56803C89.3119 8.8667 89.3439 9.20803 89.3439 9.59203V21.304C89.3439 21.6667 89.3119 21.9974 89.2479 22.296C89.1839 22.5947 89.0132 22.8294 88.7359 23C88.4799 23.1707 88.0532 23.256 87.4559 23.256ZM81.5679 19.544C82.2932 19.544 82.9439 19.3627 83.5199 19C84.0959 18.6374 84.5546 18.1467 84.8959 17.528C85.2585 16.888 85.4399 16.184 85.4399 15.416C85.4399 14.584 85.2585 13.8587 84.8959 13.24C84.5332 12.6214 84.0532 12.1414 83.4559 11.8C82.8799 11.4374 82.2292 11.256 81.5039 11.256C80.7145 11.256 80.0105 11.448 79.3919 11.832C78.7732 12.1947 78.2825 12.696 77.9199 13.336C77.5785 13.9547 77.4079 14.6587 77.4079 15.448C77.4079 16.216 77.5892 16.9094 77.9519 17.528C78.3145 18.1467 78.8052 18.6374 79.4239 19C80.0639 19.3627 80.7785 19.544 81.5679 19.544Z" fill="#1D1D1D"/>
<path d="M99.2219 23.384C98.7739 23.384 98.4005 23.3094 98.1019 23.16C97.8032 23.0107 97.5686 22.7654 97.3979 22.424L91.5739 10.232C91.2539 9.59203 91.1685 9.08003 91.3179 8.69603C91.4672 8.31203 91.8512 7.9707 92.4699 7.67203C93.1099 7.35203 93.6219 7.24536 94.0059 7.35203C94.3899 7.4587 94.7312 7.85336 95.0299 8.53603L99.2219 18.36L103.35 8.72803C103.649 8.02403 103.99 7.5867 104.374 7.41603C104.758 7.22403 105.313 7.30936 106.038 7.67203C106.763 8.0347 107.147 8.44003 107.19 8.88803C107.233 9.3147 107.115 9.80536 106.838 10.36L101.046 22.424C100.875 22.744 100.641 22.9787 100.342 23.128C100.043 23.2987 99.6699 23.384 99.2219 23.384Z" fill="#1D1D1D"/>
<path d="M116.358 23.512C114.971 23.512 113.755 23.288 112.71 22.84C111.686 22.392 110.822 21.784 110.118 21.016C109.435 20.2267 108.913 19.352 108.55 18.392C108.209 17.4107 108.038 16.3974 108.038 15.352C108.038 13.816 108.39 12.4507 109.094 11.256C109.798 10.0614 110.769 9.1227 112.006 8.44003C113.265 7.75736 114.705 7.41603 116.326 7.41603C117.478 7.41603 118.491 7.59736 119.366 7.96003C120.241 8.3227 120.966 8.8027 121.542 9.40003C122.139 9.97603 122.587 10.616 122.886 11.32C123.206 12.024 123.366 12.7067 123.366 13.368C123.366 14.4987 123.089 15.32 122.534 15.832C122.001 16.344 121.329 16.6 120.518 16.6H112.07C112.091 17.3254 112.315 17.9547 112.742 18.488C113.19 19.0214 113.745 19.4374 114.406 19.736C115.089 20.0134 115.782 20.152 116.486 20.152C117.019 20.152 117.489 20.12 117.894 20.056C118.321 19.992 118.683 19.9174 118.982 19.832C119.281 19.7254 119.537 19.6187 119.75 19.512C119.985 19.4054 120.198 19.3094 120.39 19.224C120.582 19.1387 120.763 19.0854 120.934 19.064C121.169 19.0427 121.403 19.096 121.638 19.224C121.873 19.352 122.065 19.576 122.214 19.896C122.342 20.1094 122.427 20.312 122.47 20.504C122.534 20.6747 122.566 20.8454 122.566 21.016C122.566 21.4427 122.31 21.848 121.798 22.232C121.286 22.5947 120.561 22.8934 119.622 23.128C118.705 23.384 117.617 23.512 116.358 23.512ZM112.07 14.328H118.63C118.993 14.328 119.27 14.2747 119.462 14.168C119.654 14.04 119.75 13.784 119.75 13.4C119.75 12.9094 119.601 12.472 119.302 12.088C119.003 11.6827 118.598 11.3734 118.086 11.16C117.574 10.9254 116.977 10.808 116.294 10.808C115.505 10.808 114.79 10.968 114.15 11.288C113.51 11.5867 112.998 12.0027 112.614 12.536C112.251 13.0694 112.07 13.6667 112.07 14.328Z" fill="#1D1D1D"/>
<path d="M127.88 23.288C127.304 23.288 126.877 23.192 126.6 23C126.344 22.8294 126.184 22.6054 126.12 22.328C126.056 22.0294 126.024 21.6987 126.024 21.336V9.36803C126.024 9.0267 126.056 8.71736 126.12 8.44003C126.184 8.1627 126.355 7.94936 126.632 7.80003C126.909 7.62936 127.336 7.54403 127.912 7.54403C128.424 7.54403 128.808 7.60803 129.064 7.73603C129.32 7.86403 129.491 8.02403 129.576 8.21603C129.661 8.40803 129.704 8.60003 129.704 8.79203C129.725 8.98403 129.747 9.13336 129.768 9.24003L129.64 10.264C129.768 9.9227 129.981 9.59203 130.28 9.27203C130.579 8.95203 130.941 8.66403 131.368 8.40803C131.795 8.1307 132.253 7.91736 132.744 7.76803C133.256 7.59736 133.779 7.51203 134.312 7.51203C135.315 7.51203 136.211 7.69336 137 8.05603C137.789 8.4187 138.461 8.9307 139.016 9.59203C139.592 10.2534 140.029 11.0427 140.328 11.96C140.627 12.856 140.776 13.8694 140.776 15V21.368C140.776 21.7307 140.733 22.0614 140.648 22.36C140.584 22.6374 140.424 22.8614 140.168 23.032C139.912 23.2027 139.475 23.288 138.856 23.288C138.259 23.288 137.821 23.192 137.544 23C137.267 22.8294 137.096 22.6054 137.032 22.328C136.968 22.0294 136.936 21.6987 136.936 21.336V14.968C136.936 14.2 136.797 13.5387 136.52 12.984C136.264 12.4294 135.88 12.0027 135.368 11.704C134.877 11.4054 134.248 11.256 133.48 11.256C132.733 11.256 132.083 11.416 131.528 11.736C130.973 12.0347 130.547 12.4614 130.248 13.016C129.949 13.5707 129.8 14.2214 129.8 14.968V21.368C129.8 21.7307 129.768 22.0614 129.704 22.36C129.64 22.6374 129.469 22.8614 129.192 23.032C128.936 23.2027 128.499 23.288 127.88 23.288Z" fill="#1D1D1D"/>
<path d="M151.362 23.32C150.317 23.32 149.421 23.2134 148.674 23C147.927 22.7867 147.319 22.456 146.85 22.008C146.381 21.56 146.029 20.984 145.794 20.28C145.581 19.5547 145.474 18.7014 145.474 17.72V4.15203C145.474 3.76803 145.506 3.43736 145.57 3.16003C145.655 2.8827 145.826 2.66936 146.082 2.52003C146.359 2.34936 146.786 2.26403 147.362 2.26403C147.959 2.26403 148.386 2.34936 148.642 2.52003C148.919 2.6907 149.09 2.92536 149.154 3.22403C149.239 3.50136 149.282 3.8107 149.282 4.15203V17.592C149.282 18.04 149.314 18.4027 149.378 18.68C149.463 18.9574 149.581 19.1707 149.73 19.32C149.901 19.448 150.114 19.544 150.37 19.608C150.647 19.6507 150.978 19.672 151.362 19.672C151.767 19.672 152.109 19.704 152.386 19.768C152.685 19.832 152.909 19.992 153.058 20.248C153.207 20.4827 153.282 20.8774 153.282 21.432C153.282 22.0294 153.186 22.4667 152.994 22.744C152.823 23 152.589 23.16 152.29 23.224C152.013 23.288 151.703 23.32 151.362 23.32ZM144.162 7.86403L147.458 7.89603L151.874 7.76803C152.237 7.76803 152.557 7.8107 152.834 7.89603C153.133 7.96003 153.367 8.1307 153.538 8.40803C153.709 8.66403 153.794 9.0907 153.794 9.68803C153.794 10.2427 153.709 10.6587 153.538 10.936C153.367 11.2134 153.143 11.3947 152.866 11.48C152.589 11.544 152.269 11.576 151.906 11.576L147.618 11.512L144.066 11.544C143.533 11.5227 143.159 11.3734 142.946 11.096C142.754 10.7974 142.658 10.3174 142.658 9.65603C142.658 9.03736 142.775 8.58936 143.01 8.31203C143.266 8.01336 143.65 7.86403 144.162 7.86403Z" fill="#1D1D1D"/>
<path d="M162.708 23.288C161.726 23.288 160.82 23.1174 159.988 22.776C159.177 22.4134 158.462 21.9014 157.844 21.24C157.225 20.5787 156.745 19.7894 156.404 18.872C156.062 17.9547 155.892 16.9414 155.892 15.832V9.46403C155.892 9.10136 155.924 8.78136 155.988 8.50403C156.052 8.20536 156.222 7.9707 156.5 7.80003C156.777 7.62936 157.204 7.54403 157.78 7.54403C158.398 7.54403 158.836 7.62936 159.092 7.80003C159.369 7.9707 159.54 8.20536 159.604 8.50403C159.668 8.8027 159.7 9.13336 159.7 9.49603V15.832C159.7 16.6 159.828 17.2614 160.084 17.816C160.361 18.3707 160.756 18.808 161.268 19.128C161.78 19.4267 162.409 19.576 163.156 19.576C163.924 19.576 164.574 19.4267 165.108 19.128C165.662 18.808 166.089 18.3707 166.388 17.816C166.686 17.24 166.836 16.5787 166.836 15.832V9.43203C166.836 9.06936 166.868 8.74936 166.932 8.47203C166.996 8.17336 167.166 7.94936 167.444 7.80003C167.721 7.62936 168.158 7.54403 168.756 7.54403C169.353 7.54403 169.78 7.62936 170.036 7.80003C170.292 7.9707 170.452 8.20536 170.516 8.50403C170.601 8.8027 170.644 9.1227 170.644 9.46403V21.464C170.644 21.784 170.601 22.0827 170.516 22.36C170.452 22.6374 170.281 22.8614 170.004 23.032C169.748 23.2027 169.321 23.288 168.724 23.288C168.297 23.288 167.956 23.2347 167.7 23.128C167.465 23.0427 167.284 22.9254 167.156 22.776C167.049 22.6054 166.974 22.4347 166.932 22.264C166.91 22.0934 166.9 21.9227 166.9 21.752L167.156 20.888C167.028 21.08 166.836 21.3147 166.58 21.592C166.324 21.848 166.004 22.1147 165.62 22.392C165.257 22.648 164.83 22.8614 164.34 23.032C163.849 23.2027 163.305 23.288 162.708 23.288Z" fill="#1D1D1D"/>
<path d="M175.693 23.32C175.117 23.32 174.69 23.224 174.413 23.032C174.157 22.8614 173.997 22.6267 173.933 22.328C173.869 22.0294 173.837 21.6987 173.837 21.336V9.46403C173.837 9.08003 173.869 8.74936 173.933 8.47203C173.997 8.17336 174.157 7.94936 174.413 7.80003C174.69 7.62936 175.127 7.54403 175.725 7.54403C176.301 7.54403 176.717 7.6187 176.973 7.76803C177.25 7.91736 177.421 8.10936 177.485 8.34403C177.57 8.55736 177.613 8.7707 177.613 8.98403L177.357 9.56003C177.463 9.38936 177.613 9.1867 177.805 8.95203C177.997 8.69603 178.253 8.4507 178.573 8.21603C178.893 7.96003 179.277 7.75736 179.725 7.60803C180.173 7.43736 180.706 7.35203 181.325 7.35203C181.581 7.35203 181.847 7.38403 182.125 7.44803C182.423 7.4907 182.711 7.56536 182.989 7.67203C183.287 7.75736 183.554 7.8747 183.789 8.02403C184.023 8.17336 184.205 8.3547 184.333 8.56803C184.461 8.76003 184.525 8.98403 184.525 9.24003C184.525 9.9227 184.354 10.4987 184.013 10.968C183.671 11.4374 183.266 11.672 182.797 11.672C182.477 11.672 182.242 11.64 182.093 11.576C181.943 11.512 181.815 11.4374 181.709 11.352C181.623 11.2667 181.485 11.192 181.293 11.128C181.122 11.064 180.845 11.032 180.461 11.032C180.141 11.032 179.81 11.0854 179.469 11.192C179.149 11.2987 178.85 11.4587 178.573 11.672C178.295 11.8854 178.071 12.1627 177.901 12.504C177.73 12.824 177.645 13.1974 177.645 13.624V21.4C177.645 21.7627 177.613 22.0934 177.549 22.392C177.485 22.6694 177.314 22.8934 177.037 23.064C176.759 23.2347 176.311 23.32 175.693 23.32Z" fill="#1D1D1D"/>
<path d="M198.925 23.256C198.306 23.256 197.847 23.1387 197.549 22.904C197.25 22.6694 197.101 22.3494 197.101 21.944L197.325 20.888C197.154 21.1654 196.866 21.496 196.461 21.88C196.055 22.2427 195.522 22.5734 194.861 22.872C194.199 23.1494 193.399 23.288 192.461 23.288C191.458 23.288 190.509 23.0854 189.613 22.68C188.738 22.2534 187.959 21.6774 187.277 20.952C186.615 20.2054 186.082 19.3627 185.677 18.424C185.293 17.464 185.101 16.44 185.101 15.352C185.101 14.3067 185.293 13.3254 185.677 12.408C186.082 11.4694 186.626 10.6374 187.309 9.91203C187.991 9.1867 188.77 8.62136 189.645 8.21603C190.541 7.78936 191.479 7.57603 192.461 7.57603C193.335 7.57603 194.071 7.69336 194.669 7.92803C195.287 8.1627 195.81 8.46136 196.237 8.82403C196.663 9.16536 197.015 9.52803 197.293 9.91203L197.101 8.98403C197.101 8.5147 197.25 8.1627 197.549 7.92803C197.847 7.67203 198.317 7.54403 198.957 7.54403C199.554 7.54403 199.981 7.64003 200.237 7.83203C200.493 8.0027 200.653 8.24803 200.717 8.56803C200.781 8.8667 200.813 9.20803 200.813 9.59203V21.304C200.813 21.6667 200.781 21.9974 200.717 22.296C200.653 22.5947 200.482 22.8294 200.205 23C199.949 23.1707 199.522 23.256 198.925 23.256ZM193.037 19.544C193.762 19.544 194.413 19.3627 194.989 19C195.565 18.6374 196.023 18.1467 196.365 17.528C196.727 16.888 196.909 16.184 196.909 15.416C196.909 14.584 196.727 13.8587 196.365 13.24C196.002 12.6214 195.522 12.1414 194.925 11.8C194.349 11.4374 193.698 11.256 192.973 11.256C192.183 11.256 191.479 11.448 190.861 11.832C190.242 12.1947 189.751 12.696 189.389 13.336C189.047 13.9547 188.877 14.6587 188.877 15.448C188.877 16.216 189.058 16.9094 189.421 17.528C189.783 18.1467 190.274 18.6374 190.893 19C191.533 19.3627 192.247 19.544 193.037 19.544Z" fill="#1D1D1D"/>
<path d="M215.267 23.32C214.691 23.32 214.264 23.2347 213.987 23.064C213.731 22.8934 213.571 22.6587 213.507 22.36C213.443 22.04 213.411 21.7094 213.411 21.368V5.81603C213.411 5.0267 213.517 4.30136 213.731 3.64003C213.944 2.95736 214.285 2.3707 214.755 1.88003C215.224 1.38936 215.832 1.00536 216.579 0.728029C217.325 0.429363 218.232 0.280029 219.299 0.280029C219.661 0.280029 219.981 0.322696 220.259 0.40803C220.557 0.47203 220.792 0.63203 220.963 0.888029C221.155 1.14403 221.251 1.58136 221.251 2.20003C221.251 2.77603 221.155 3.2027 220.963 3.48003C220.792 3.75736 220.557 3.92803 220.259 3.99203C219.96 4.05603 219.629 4.08803 219.267 4.08803C218.904 4.08803 218.584 4.10936 218.307 4.15203C218.051 4.17336 217.837 4.23736 217.667 4.34403C217.517 4.4507 217.4 4.62136 217.315 4.85603C217.251 5.0907 217.219 5.38936 217.219 5.75203V21.432C217.219 21.7734 217.176 22.0934 217.091 22.392C217.027 22.6694 216.856 22.8934 216.579 23.064C216.301 23.2347 215.864 23.32 215.267 23.32ZM212.099 7.86403L215.395 7.89603L219.811 7.76803C220.173 7.76803 220.493 7.8107 220.771 7.89603C221.069 7.96003 221.304 8.1307 221.475 8.40803C221.645 8.66403 221.731 9.0907 221.731 9.68803C221.731 10.2427 221.645 10.6587 221.475 10.936C221.304 11.2134 221.08 11.3947 220.803 11.48C220.525 11.544 220.205 11.576 219.843 11.576L215.555 11.512L212.003 11.544C211.469 11.5227 211.096 11.3734 210.883 11.096C210.691 10.7974 210.595 10.3174 210.595 9.65603C210.595 9.03736 210.712 8.58936 210.947 8.31203C211.203 8.01336 211.587 7.86403 212.099 7.86403Z" fill="#1D1D1D"/>
<path d="M226.134 23.32C225.558 23.32 225.131 23.224 224.854 23.032C224.577 22.8614 224.406 22.6374 224.342 22.36C224.278 22.0614 224.246 21.7307 224.246 21.368V9.46403C224.246 9.1227 224.278 8.81336 224.342 8.53603C224.427 8.23736 224.598 8.0027 224.854 7.83203C225.131 7.66136 225.569 7.57603 226.166 7.57603C226.763 7.57603 227.19 7.66136 227.446 7.83203C227.723 8.0027 227.894 8.23736 227.958 8.53603C228.022 8.8347 228.054 9.16536 228.054 9.52803V21.4C228.054 21.7627 228.022 22.0934 227.958 22.392C227.894 22.6694 227.723 22.8934 227.446 23.064C227.19 23.2347 226.753 23.32 226.134 23.32ZM226.134 4.47203C225.515 4.47203 225.057 4.3867 224.758 4.21603C224.481 4.02403 224.299 3.76803 224.214 3.44803C224.15 3.12803 224.118 2.77603 224.118 2.39203C224.118 1.9867 224.15 1.6347 224.214 1.33603C224.299 1.03736 224.491 0.802696 224.79 0.632029C225.089 0.44003 225.547 0.34403 226.166 0.34403C226.806 0.34403 227.265 0.44003 227.542 0.632029C227.819 0.824029 228.001 1.08003 228.086 1.40003C228.171 1.6987 228.214 2.0507 228.214 2.45603C228.214 2.8187 228.171 3.16003 228.086 3.48003C228.001 3.80003 227.819 4.04536 227.542 4.21603C227.265 4.3867 226.795 4.47203 226.134 4.47203Z" fill="#1D1D1D"/>
<path d="M233.443 23.288C232.867 23.288 232.44 23.192 232.163 23C231.907 22.8294 231.747 22.6054 231.683 22.328C231.619 22.0294 231.587 21.6987 231.587 21.336V9.36803C231.587 9.0267 231.619 8.71736 231.683 8.44003C231.747 8.1627 231.917 7.94936 232.195 7.80003C232.472 7.62936 232.899 7.54403 233.475 7.54403C233.987 7.54403 234.371 7.60803 234.627 7.73603C234.883 7.86403 235.053 8.02403 235.139 8.21603C235.224 8.40803 235.267 8.60003 235.267 8.79203C235.288 8.98403 235.309 9.13336 235.331 9.24003L235.203 10.264C235.331 9.9227 235.544 9.59203 235.843 9.27203C236.141 8.95203 236.504 8.66403 236.931 8.40803C237.357 8.1307 237.816 7.91736 238.307 7.76803C238.819 7.59736 239.341 7.51203 239.875 7.51203C240.877 7.51203 241.773 7.69336 242.563 8.05603C243.352 8.4187 244.024 8.9307 244.579 9.59203C245.155 10.2534 245.592 11.0427 245.891 11.96C246.189 12.856 246.339 13.8694 246.339 15V21.368C246.339 21.7307 246.296 22.0614 246.211 22.36C246.147 22.6374 245.987 22.8614 245.731 23.032C245.475 23.2027 245.037 23.288 244.419 23.288C243.821 23.288 243.384 23.192 243.107 23C242.829 22.8294 242.659 22.6054 242.595 22.328C242.531 22.0294 242.499 21.6987 242.499 21.336V14.968C242.499 14.2 242.36 13.5387 242.083 12.984C241.827 12.4294 241.443 12.0027 240.931 11.704C240.44 11.4054 239.811 11.256 239.043 11.256C238.296 11.256 237.645 11.416 237.091 11.736C236.536 12.0347 236.109 12.4614 235.811 13.016C235.512 13.5707 235.363 14.2214 235.363 14.968V21.368C235.363 21.7307 235.331 22.0614 235.267 22.36C235.203 22.6374 235.032 22.8614 234.755 23.032C234.499 23.2027 234.061 23.288 233.443 23.288Z" fill="#1D1D1D"/>
<path d="M262.581 23.256C261.962 23.256 261.504 23.1387 261.205 22.904C260.906 22.6694 260.757 22.3494 260.757 21.944L260.981 20.888C260.81 21.1654 260.522 21.496 260.117 21.88C259.712 22.2427 259.178 22.5734 258.517 22.872C257.856 23.1494 257.056 23.288 256.117 23.288C255.114 23.288 254.165 23.0854 253.269 22.68C252.394 22.2534 251.616 21.6774 250.933 20.952C250.272 20.2054 249.738 19.3627 249.333 18.424C248.949 17.464 248.757 16.44 248.757 15.352C248.757 14.3067 248.949 13.3254 249.333 12.408C249.738 11.4694 250.282 10.6374 250.965 9.91203C251.648 9.1867 252.426 8.62136 253.301 8.21603C254.197 7.78936 255.136 7.57603 256.117 7.57603C256.992 7.57603 257.728 7.69336 258.325 7.92803C258.944 8.1627 259.466 8.46136 259.893 8.82403C260.32 9.16536 260.672 9.52803 260.949 9.91203L260.757 8.98403C260.757 8.5147 260.906 8.1627 261.205 7.92803C261.504 7.67203 261.973 7.54403 262.613 7.54403C263.21 7.54403 263.637 7.64003 263.893 7.83203C264.149 8.0027 264.309 8.24803 264.373 8.56803C264.437 8.8667 264.469 9.20803 264.469 9.59203V21.304C264.469 21.6667 264.437 21.9974 264.373 22.296C264.309 22.5947 264.138 22.8294 263.861 23C263.605 23.1707 263.178 23.256 262.581 23.256ZM256.693 19.544C257.418 19.544 258.069 19.3627 258.645 19C259.221 18.6374 259.68 18.1467 260.021 17.528C260.384 16.888 260.565 16.184 260.565 15.416C260.565 14.584 260.384 13.8587 260.021 13.24C259.658 12.6214 259.178 12.1414 258.581 11.8C258.005 11.4374 257.354 11.256 256.629 11.256C255.84 11.256 255.136 11.448 254.517 11.832C253.898 12.1947 253.408 12.696 253.045 13.336C252.704 13.9547 252.533 14.6587 252.533 15.448C252.533 16.216 252.714 16.9094 253.077 17.528C253.44 18.1467 253.93 18.6374 254.549 19C255.189 19.3627 255.904 19.544 256.693 19.544Z" fill="#1D1D1D"/>
<path d="M269.568 23.288C268.992 23.288 268.565 23.192 268.288 23C268.032 22.8294 267.872 22.6054 267.808 22.328C267.744 22.0294 267.712 21.6987 267.712 21.336V9.36803C267.712 9.0267 267.744 8.71736 267.808 8.44003C267.872 8.1627 268.042 7.94936 268.32 7.80003C268.597 7.62936 269.024 7.54403 269.6 7.54403C270.112 7.54403 270.496 7.60803 270.752 7.73603C271.008 7.86403 271.178 8.02403 271.264 8.21603C271.349 8.40803 271.392 8.60003 271.392 8.79203C271.413 8.98403 271.434 9.13336 271.456 9.24003L271.328 10.264C271.456 9.9227 271.669 9.59203 271.968 9.27203C272.266 8.95203 272.629 8.66403 273.056 8.40803C273.482 8.1307 273.941 7.91736 274.432 7.76803C274.944 7.59736 275.466 7.51203 276 7.51203C277.002 7.51203 277.898 7.69336 278.688 8.05603C279.477 8.4187 280.149 8.9307 280.704 9.59203C281.28 10.2534 281.717 11.0427 282.016 11.96C282.314 12.856 282.464 13.8694 282.464 15V21.368C282.464 21.7307 282.421 22.0614 282.336 22.36C282.272 22.6374 282.112 22.8614 281.856 23.032C281.6 23.2027 281.162 23.288 280.544 23.288C279.946 23.288 279.509 23.192 279.232 23C278.954 22.8294 278.784 22.6054 278.72 22.328C278.656 22.0294 278.624 21.6987 278.624 21.336V14.968C278.624 14.2 278.485 13.5387 278.208 12.984C277.952 12.4294 277.568 12.0027 277.056 11.704C276.565 11.4054 275.936 11.256 275.168 11.256C274.421 11.256 273.77 11.416 273.216 11.736C272.661 12.0347 272.234 12.4614 271.936 13.016C271.637 13.5707 271.488 14.2214 271.488 14.968V21.368C271.488 21.7307 271.456 22.0614 271.392 22.36C271.328 22.6374 271.157 22.8614 270.88 23.032C270.624 23.2027 270.186 23.288 269.568 23.288Z" fill="#1D1D1D"/>
<path d="M293.202 23.384C292.178 23.384 291.175 23.2134 290.194 22.872C289.234 22.5094 288.359 21.9867 287.57 21.304C286.802 20.6214 286.183 19.7894 285.714 18.808C285.266 17.8054 285.042 16.6747 285.042 15.416C285.042 14.1574 285.266 13.0374 285.714 12.056C286.183 11.0747 286.802 10.2427 287.57 9.56003C288.338 8.87736 289.202 8.3547 290.162 7.99203C291.122 7.62936 292.114 7.44803 293.138 7.44803C293.885 7.44803 294.589 7.5547 295.25 7.76803C295.933 7.98136 296.519 8.23736 297.01 8.53603C297.501 8.8347 297.853 9.13336 298.066 9.43203C298.343 9.68803 298.578 9.93336 298.77 10.168C298.962 10.4027 299.026 10.6907 298.962 11.032C298.898 11.2454 298.802 11.448 298.674 11.64C298.546 11.8107 298.386 11.992 298.194 12.184C297.682 12.76 297.181 12.9734 296.69 12.824C296.413 12.6747 296.135 12.5147 295.858 12.344C295.581 12.1734 295.293 12.0134 294.994 11.864C294.717 11.6934 294.429 11.5547 294.13 11.448C293.831 11.3414 293.501 11.288 293.138 11.288C292.327 11.288 291.602 11.4694 290.962 11.832C290.343 12.1734 289.853 12.6534 289.49 13.272C289.149 13.8907 288.978 14.6054 288.978 15.416C288.978 16.2267 289.149 16.952 289.49 17.592C289.853 18.2107 290.343 18.7014 290.962 19.064C291.581 19.4054 292.285 19.576 293.074 19.576C293.458 19.576 293.821 19.5334 294.162 19.448C294.525 19.3414 294.845 19.2134 295.122 19.064C295.399 18.8934 295.623 18.7227 295.794 18.552C296.029 18.4027 296.242 18.264 296.434 18.136C296.626 18.008 296.829 17.944 297.042 17.944C297.298 17.944 297.543 18.04 297.778 18.232C298.034 18.4027 298.311 18.68 298.61 19.064C298.887 19.384 299.037 19.6934 299.058 19.992C299.101 20.2907 299.037 20.5787 298.866 20.856C298.717 21.1334 298.461 21.3894 298.098 21.624C297.842 21.88 297.458 22.1467 296.946 22.424C296.455 22.68 295.879 22.904 295.218 23.096C294.578 23.288 293.906 23.384 293.202 23.384Z" fill="#1D1D1D"/>
<path d="M309.421 23.512C308.034 23.512 306.818 23.288 305.773 22.84C304.749 22.392 303.885 21.784 303.181 21.016C302.498 20.2267 301.975 19.352 301.613 18.392C301.271 17.4107 301.101 16.3974 301.101 15.352C301.101 13.816 301.453 12.4507 302.157 11.256C302.861 10.0614 303.831 9.1227 305.069 8.44003C306.327 7.75736 307.767 7.41603 309.389 7.41603C310.541 7.41603 311.554 7.59736 312.429 7.96003C313.303 8.3227 314.029 8.8027 314.605 9.40003C315.202 9.97603 315.65 10.616 315.949 11.32C316.269 12.024 316.429 12.7067 316.429 13.368C316.429 14.4987 316.151 15.32 315.597 15.832C315.063 16.344 314.391 16.6 313.581 16.6H305.133C305.154 17.3254 305.378 17.9547 305.805 18.488C306.253 19.0214 306.807 19.4374 307.469 19.736C308.151 20.0134 308.845 20.152 309.549 20.152C310.082 20.152 310.551 20.12 310.957 20.056C311.383 19.992 311.746 19.9174 312.045 19.832C312.343 19.7254 312.599 19.6187 312.813 19.512C313.047 19.4054 313.261 19.3094 313.453 19.224C313.645 19.1387 313.826 19.0854 313.997 19.064C314.231 19.0427 314.466 19.096 314.701 19.224C314.935 19.352 315.127 19.576 315.277 19.896C315.405 20.1094 315.49 20.312 315.533 20.504C315.597 20.6747 315.629 20.8454 315.629 21.016C315.629 21.4427 315.373 21.848 314.861 22.232C314.349 22.5947 313.623 22.8934 312.685 23.128C311.767 23.384 310.679 23.512 309.421 23.512ZM305.133 14.328H311.693C312.055 14.328 312.333 14.2747 312.525 14.168C312.717 14.04 312.813 13.784 312.813 13.4C312.813 12.9094 312.663 12.472 312.365 12.088C312.066 11.6827 311.661 11.3734 311.149 11.16C310.637 10.9254 310.039 10.808 309.357 10.808C308.567 10.808 307.853 10.968 307.213 11.288C306.573 11.5867 306.061 12.0027 305.677 12.536C305.314 13.0694 305.133 13.6667 305.133 14.328Z" fill="#1D1D1D"/>
<path d="M321.103 23.32C320.527 23.32 320.1 23.224 319.823 23.032C319.545 22.8614 319.375 22.6374 319.311 22.36C319.247 22.0614 319.215 21.7307 319.215 21.368V9.46403C319.215 9.1227 319.247 8.81336 319.311 8.53603C319.396 8.23736 319.567 8.0027 319.823 7.83203C320.1 7.66136 320.537 7.57603 321.135 7.57603C321.732 7.57603 322.159 7.66136 322.415 7.83203C322.692 8.0027 322.863 8.23736 322.927 8.53603C322.991 8.8347 323.023 9.16536 323.023 9.52803V21.4C323.023 21.7627 322.991 22.0934 322.927 22.392C322.863 22.6694 322.692 22.8934 322.415 23.064C322.159 23.2347 321.721 23.32 321.103 23.32ZM321.103 4.47203C320.484 4.47203 320.025 4.3867 319.727 4.21603C319.449 4.02403 319.268 3.76803 319.183 3.44803C319.119 3.12803 319.087 2.77603 319.087 2.39203C319.087 1.9867 319.119 1.6347 319.183 1.33603C319.268 1.03736 319.46 0.802696 319.759 0.632029C320.057 0.44003 320.516 0.34403 321.135 0.34403C321.775 0.34403 322.233 0.44003 322.511 0.632029C322.788 0.824029 322.969 1.08003 323.055 1.40003C323.14 1.6987 323.183 2.0507 323.183 2.45603C323.183 2.8187 323.14 3.16003 323.055 3.48003C322.969 3.80003 322.788 4.04536 322.511 4.21603C322.233 4.3867 321.764 4.47203 321.103 4.47203Z" fill="#1D1D1D"/>
<path d="M328.411 23.32C327.835 23.32 327.409 23.224 327.131 23.032C326.875 22.8614 326.715 22.6267 326.651 22.328C326.587 22.0294 326.555 21.6987 326.555 21.336V9.46403C326.555 9.08003 326.587 8.74936 326.651 8.47203C326.715 8.17336 326.875 7.94936 327.131 7.80003C327.409 7.62936 327.846 7.54403 328.443 7.54403C329.019 7.54403 329.435 7.6187 329.691 7.76803C329.969 7.91736 330.139 8.10936 330.203 8.34403C330.289 8.55736 330.331 8.7707 330.331 8.98403L330.075 9.56003C330.182 9.38936 330.331 9.1867 330.523 8.95203C330.715 8.69603 330.971 8.4507 331.291 8.21603C331.611 7.96003 331.995 7.75736 332.443 7.60803C332.891 7.43736 333.425 7.35203 334.043 7.35203C334.299 7.35203 334.566 7.38403 334.843 7.44803C335.142 7.4907 335.43 7.56536 335.707 7.67203C336.006 7.75736 336.273 7.8747 336.507 8.02403C336.742 8.17336 336.923 8.3547 337.051 8.56803C337.179 8.76003 337.243 8.98403 337.243 9.24003C337.243 9.9227 337.073 10.4987 336.731 10.968C336.39 11.4374 335.985 11.672 335.515 11.672C335.195 11.672 334.961 11.64 334.811 11.576C334.662 11.512 334.534 11.4374 334.427 11.352C334.342 11.2667 334.203 11.192 334.011 11.128C333.841 11.064 333.563 11.032 333.179 11.032C332.859 11.032 332.529 11.0854 332.187 11.192C331.867 11.2987 331.569 11.4587 331.291 11.672C331.014 11.8854 330.79 12.1627 330.619 12.504C330.449 12.824 330.363 13.1974 330.363 13.624V21.4C330.363 21.7627 330.331 22.0934 330.267 22.392C330.203 22.6694 330.033 22.8934 329.755 23.064C329.478 23.2347 329.03 23.32 328.411 23.32Z" fill="#1D1D1D"/>
<path d="M351.643 23.256C351.025 23.256 350.566 23.1387 350.267 22.904C349.969 22.6694 349.819 22.3494 349.819 21.944L350.043 20.888C349.873 21.1654 349.585 21.496 349.179 21.88C348.774 22.2427 348.241 22.5734 347.579 22.872C346.918 23.1494 346.118 23.288 345.179 23.288C344.177 23.288 343.227 23.0854 342.331 22.68C341.457 22.2534 340.678 21.6774 339.995 20.952C339.334 20.2054 338.801 19.3627 338.395 18.424C338.011 17.464 337.819 16.44 337.819 15.352C337.819 14.3067 338.011 13.3254 338.395 12.408C338.801 11.4694 339.345 10.6374 340.027 9.91203C340.71 9.1867 341.489 8.62136 342.363 8.21603C343.259 7.78936 344.198 7.57603 345.179 7.57603C346.054 7.57603 346.79 7.69336 347.387 7.92803C348.006 8.1627 348.529 8.46136 348.955 8.82403C349.382 9.16536 349.734 9.52803 350.011 9.91203L349.819 8.98403C349.819 8.5147 349.969 8.1627 350.267 7.92803C350.566 7.67203 351.035 7.54403 351.675 7.54403C352.273 7.54403 352.699 7.64003 352.955 7.83203C353.211 8.0027 353.371 8.24803 353.435 8.56803C353.499 8.8667 353.531 9.20803 353.531 9.59203V21.304C353.531 21.6667 353.499 21.9974 353.435 22.296C353.371 22.5947 353.201 22.8294 352.923 23C352.667 23.1707 352.241 23.256 351.643 23.256ZM345.755 19.544C346.481 19.544 347.131 19.3627 347.707 19C348.283 18.6374 348.742 18.1467 349.083 17.528C349.446 16.888 349.627 16.184 349.627 15.416C349.627 14.584 349.446 13.8587 349.083 13.24C348.721 12.6214 348.241 12.1414 347.643 11.8C347.067 11.4374 346.417 11.256 345.691 11.256C344.902 11.256 344.198 11.448 343.579 11.832C342.961 12.1947 342.47 12.696 342.107 13.336C341.766 13.9547 341.595 14.6587 341.595 15.448C341.595 16.216 341.777 16.9094 342.139 17.528C342.502 18.1467 342.993 18.6374 343.611 19C344.251 19.3627 344.966 19.544 345.755 19.544Z" fill="#1D1D1D"/>
<path d="M358.886 16.504C358.289 16.504 357.851 16.4294 357.574 16.28C357.297 16.1094 357.126 15.896 357.062 15.64C356.998 15.3627 356.966 15.064 356.966 14.744V2.68003C356.966 2.36003 356.998 2.06136 357.062 1.78403C357.126 1.5067 357.297 1.29336 357.574 1.14403C357.851 0.973363 358.289 0.888029 358.886 0.888029C359.483 0.888029 359.91 0.973363 360.166 1.14403C360.443 1.29336 360.614 1.5067 360.678 1.78403C360.763 2.06136 360.806 2.36003 360.806 2.68003V14.712C360.806 15.0534 360.763 15.3627 360.678 15.64C360.614 15.896 360.443 16.1094 360.166 16.28C359.91 16.4294 359.483 16.504 358.886 16.504ZM358.886 23.32C358.033 23.32 357.457 23.16 357.158 22.84C356.881 22.52 356.742 21.9654 356.742 21.176C356.742 20.792 356.785 20.44 356.87 20.12C356.955 19.7787 357.147 19.512 357.446 19.32C357.745 19.128 358.225 19.032 358.886 19.032C359.739 19.032 360.305 19.192 360.582 19.512C360.859 19.832 360.998 20.3867 360.998 21.176C360.998 21.56 360.955 21.9227 360.87 22.264C360.806 22.584 360.625 22.84 360.326 23.032C360.027 23.224 359.547 23.32 358.886 23.32Z" fill="#1D1D1D"/>
</svg>
