<svg width="49" height="48" viewBox="0 0 49 48" fill="none" xmlns="http://www.w3.org/2000/svg">
<path d="M26.7224 1.59018C26.3149 1.95018 23.1454 8.20143 23.1454 8.20143L20.7872 17.6552L29.9636 16.8189C29.9636 16.8189 37.5969 2.71143 37.7516 2.38518C38.027 1.79268 38.1742 1.54893 37.1214 1.54893C36.0687 1.54518 27.1035 1.25268 26.7224 1.59018Z" fill="#176CC7"/>
<path d="M31.4729 16.234C31.0164 15.9903 17.5686 15.7803 17.2517 16.234C16.9649 16.6465 17.0064 18.5328 17.146 18.7765C17.2856 19.0203 21.8059 21.109 21.8059 21.109L21.8022 21.8703C21.8022 21.8703 22.0512 22.4665 24.5717 22.4665C27.0922 22.4665 27.3526 21.9603 27.3526 21.9603L27.3752 21.1915C27.3752 21.1915 31.3333 19.2265 31.5408 19.054C31.7521 18.8778 31.9295 16.4778 31.4729 16.234ZM27.3299 19.3578C27.3299 19.3578 27.3186 18.8328 27.0583 18.7015C26.7979 18.5703 22.6059 18.5928 22.2512 18.6115C21.8965 18.6303 21.8965 19.2603 21.8965 19.2603L19.0288 17.8728V17.5953L29.7071 17.6703L29.7259 17.9853L27.3299 19.3578Z" fill="#FCC417"/>
<path d="M23.0134 19.1885C22.6587 19.1885 22.4549 19.556 22.4549 20.1897C22.4549 20.7822 22.6587 21.281 23.1077 21.2435C23.4775 21.2135 23.6058 20.651 23.5718 20.1522C23.5378 19.5597 23.4624 19.1885 23.0134 19.1885Z" fill="#FDFFFF"/>
<path d="M11.588 34.0197C11.588 43.0047 19.7608 47.006 25.1943 46.8147C31.1861 46.601 38.3628 41.9585 37.9289 33.386C37.5176 25.2635 30.6428 21.4122 24.6887 21.4535C17.7686 21.5022 11.588 26.171 11.588 34.0197Z" fill="#FCC417"/>
<path d="M25.0018 45.2508C24.9075 45.2508 24.8094 45.2508 24.7151 45.2471C21.8852 45.1533 19.0892 43.9683 17.0441 41.9996C14.8556 39.8921 13.6558 37.0421 13.6709 33.9783C13.7048 26.4971 20.2853 23.0283 24.749 23.0283H24.7868C30.8352 23.0546 35.8008 27.7271 35.9404 34.0608C36.0008 36.8808 34.8386 39.8396 32.5596 42.0671C30.4315 44.1408 27.6091 45.2508 25.0018 45.2508ZM24.7415 24.2733C20.7381 24.2733 14.8179 27.5283 14.8028 33.9783C14.7915 38.8008 18.5496 43.7583 24.8094 43.9683C27.1941 44.0433 29.6504 43.1358 31.6352 41.1971C33.6953 39.1833 34.8537 36.5883 34.8122 34.0758C34.7216 28.6271 30.2391 24.2921 24.7981 24.2696C24.783 24.2696 24.7528 24.2733 24.7415 24.2733Z" fill="#FA912C"/>
<path d="M22.47 22.7283C22.2097 22.3721 19.259 22.4396 16.4706 25.1471C13.7803 27.7608 13.4898 30.2246 14.0067 30.3671C14.5915 30.5283 15.3047 27.9183 17.7686 25.7246C20.0325 23.7146 22.9907 23.4371 22.47 22.7283ZM33.884 32.4296C32.9747 32.5571 33.918 35.2646 31.8088 38.2946C29.9787 40.9233 27.9035 41.8758 28.145 42.4533C28.4695 43.2258 31.7937 41.3021 33.3331 38.1671C34.7292 35.3283 34.5632 32.3321 33.884 32.4296Z" fill="#FEFFFA"/>
<path d="M21.7267 28.8824C21.5305 29.1712 21.7078 31.7024 21.8248 31.8149C22.0512 32.0399 23.7718 31.2337 23.7718 31.2337L23.7076 38.0024C23.7076 38.0024 22.4436 37.9874 22.3115 38.0362C22.0512 38.1337 22.0851 40.7437 22.2776 40.8712C22.47 40.9987 27.628 41.0662 27.8242 40.8074C28.0204 40.5487 27.9714 38.2649 27.8808 38.1599C27.7186 37.9649 26.4847 38.0437 26.4847 38.0437C26.4847 38.0437 26.5904 28.0762 26.5564 27.7574C26.5224 27.4387 26.1678 27.2399 25.7452 27.3374C25.3226 27.4349 21.8512 28.6949 21.7267 28.8824Z" fill="#FA912C"/>
<path d="M10.2788 1.39516C10.041 1.61266 19.1307 17.7002 19.1307 17.7002C19.1307 17.7002 20.6551 17.8952 24.0585 17.9252C27.462 17.9552 29.1486 17.7302 29.1486 17.7302C29.1486 17.7302 22.0814 1.55641 21.6588 1.39516C21.4513 1.31266 18.6515 1.28266 15.9159 1.25266C13.1766 1.21891 10.5051 1.18516 10.2788 1.39516Z" fill="#2E9DF4"/>
</svg>
