<svg width="49" height="48" viewBox="0 0 49 48" fill="none" xmlns="http://www.w3.org/2000/svg">
<path d="M26.7224 1.59018C26.3149 1.95018 23.1454 8.20143 23.1454 8.20143L20.7872 17.6552L29.9636 16.8189C29.9636 16.8189 37.5969 2.71143 37.7516 2.38518C38.027 1.79268 38.1742 1.54893 37.1214 1.54893C36.0687 1.54518 27.1035 1.25268 26.7224 1.59018Z" fill="#176CC7"/>
<path d="M31.4729 16.234C31.0164 15.9903 17.5686 15.7803 17.2517 16.234C16.9649 16.6465 17.1271 18.8103 17.2366 19.069C17.4328 19.519 21.7757 21.4803 21.7757 21.4803L21.6927 22.3728C21.6927 22.3728 22.0474 22.4628 24.5717 22.4628C27.096 22.4628 27.5941 22.3353 27.5941 22.3353L27.6016 21.529C27.6016 21.529 31.5107 19.639 31.7069 19.3765C31.8729 19.159 31.9295 16.4778 31.4729 16.234ZM27.4695 19.654C27.4695 19.654 27.5941 19.1028 27.3337 18.9753C27.0733 18.844 22.6059 18.904 22.2512 18.9228C21.8965 18.9415 21.8965 19.5715 21.8965 19.5715L19.0288 17.8728V17.5953L29.7071 17.6703L29.7259 17.9853L27.4695 19.654Z" fill="#CECDD2"/>
<path d="M23.0134 19.1885C22.6587 19.1885 22.4549 19.556 22.4549 20.1897C22.4549 20.7822 22.6587 21.281 23.1077 21.2435C23.4775 21.2135 23.6058 20.651 23.5718 20.1522C23.5378 19.5597 23.4624 19.1885 23.0134 19.1885Z" fill="#FDFFFF"/>
<path d="M11.5843 34.4591C11.5843 43.4441 19.9042 47.2578 25.3414 47.0966C31.6767 46.9091 38.3628 42.1316 37.9289 33.5591C37.5176 25.4366 30.5862 21.8253 24.6321 21.8666C17.712 21.9191 11.5843 26.6103 11.5843 34.4591Z" fill="#CECDD2"/>
<path d="M25.0018 45.4237C24.9075 45.4237 24.8094 45.4237 24.7151 45.4199C21.8852 45.3262 19.0892 44.1412 17.0441 42.1724C14.8556 40.0649 13.6558 37.2149 13.6709 34.1512C13.7048 26.6699 20.2853 23.2012 24.749 23.2012H24.7868C30.8352 23.2274 35.8008 27.8999 35.9404 34.2337C36.0008 37.0537 34.8386 40.0124 32.5596 42.2399C30.4315 44.3137 27.6091 45.4237 25.0018 45.4237ZM24.7415 24.4462C20.7381 24.4462 14.8179 27.7012 14.8028 34.1512C14.7915 38.9737 18.5496 43.9312 24.8094 44.1412C27.1941 44.2162 29.6504 43.3087 31.6352 41.3699C33.6953 39.3562 34.8537 36.7612 34.8122 34.2487C34.7141 28.7999 30.2315 24.4649 24.7905 24.4387C24.783 24.4387 24.7528 24.4462 24.7415 24.4462Z" fill="#9B9B9D"/>
<path d="M22.5719 23.0512C22.3115 22.695 19.6439 22.7962 16.7725 25.2525C13.9199 27.6937 13.4935 30.3937 14.0067 30.5362C14.5915 30.6975 15.3047 28.0875 17.7686 25.8937C20.0325 23.8875 23.0888 23.76 22.5719 23.0512ZM33.8123 32.895C32.903 33.0225 33.8463 35.73 31.737 38.76C29.907 41.3887 27.8318 42.3412 28.0732 42.9187C28.3977 43.6912 31.722 41.7675 33.2614 38.6325C34.6537 35.7975 34.4877 32.8012 33.8123 32.895Z" fill="#FEFFFA"/>
<path d="M10.2788 1.39516C10.041 1.61266 19.1307 17.7002 19.1307 17.7002C19.1307 17.7002 20.6551 17.8952 24.0585 17.9252C27.462 17.9552 29.1486 17.7302 29.1486 17.7302C29.1486 17.7302 22.0814 1.55641 21.6588 1.39516C21.4513 1.31266 18.6515 1.28266 15.9159 1.25266C13.1766 1.21891 10.5051 1.18516 10.2788 1.39516Z" fill="#2E9DF4"/>
<path d="M22.104 32.3817C22.4964 32.3855 22.8473 31.8567 23.1718 31.5342C23.8623 30.8442 24.5868 30.2967 25.4131 31.0392C27.4431 32.873 23.368 34.733 21.821 37.2755C20.6664 39.173 20.4325 40.6317 20.7532 41.0217C21.0739 41.4117 28.8807 41.393 28.9864 41.198C29.092 41.003 29.2014 38.4042 29.0203 38.2805C28.8392 38.1567 25.0018 38.228 25.0018 38.228C25.0018 38.228 25.3226 37.4855 26.6394 36.353C28.0846 35.1117 29.2429 33.4055 28.9335 31.388C28.2921 27.218 24.0661 27.0642 22.2361 28.5155C20.4513 29.9292 20.8362 32.3667 22.104 32.3817Z" fill="#9B9B9D"/>
</svg>
