<svg width="49" height="48" viewBox="0 0 49 48" fill="none" xmlns="http://www.w3.org/2000/svg">
<path d="M26.6284 1.59018C26.2196 1.95018 23.0403 8.20143 23.0403 8.20143L20.6747 17.6552L29.8797 16.8189C29.8797 16.8189 37.5366 2.71143 37.6918 2.38518C37.9681 1.79268 38.1157 1.54893 37.0597 1.54893C36.0037 1.54518 27.0107 1.25268 26.6284 1.59018Z" fill="#176CC7"/>
<path d="M31.3937 16.234C30.9357 15.9903 17.4462 15.7803 17.1282 16.234C16.8406 16.6465 17.0033 18.8103 17.1131 19.069C17.3099 19.519 21.6664 21.4803 21.6664 21.4803L21.5831 22.3728C21.5831 22.3728 21.9389 22.4628 24.471 22.4628C27.0031 22.4628 27.5027 22.3353 27.5027 22.3353L27.5103 21.529C27.5103 21.529 31.4315 19.639 31.6283 19.3765C31.7949 19.159 31.8516 16.4778 31.3937 16.234ZM27.3778 19.654C27.3778 19.654 27.5027 19.1028 27.2416 18.9753C26.9804 18.844 22.4991 18.904 22.1433 18.9228C21.7875 18.9415 21.7875 19.5715 21.7875 19.5715L18.9639 18.1315L18.9109 17.5953L29.6223 17.6703L29.5845 18.1765L27.3778 19.654Z" fill="#F79429"/>
<path d="M22.9078 19.459C22.552 19.459 22.3477 19.8265 22.3477 20.4602C22.3477 21.0527 22.552 21.5515 23.0025 21.514C23.3734 21.484 23.5021 20.9215 23.468 20.4227C23.4339 19.8265 23.3582 19.459 22.9078 19.459Z" fill="#FDFFFF"/>
<path d="M11.5719 34.5341C11.5719 43.5191 19.789 47.2578 25.2431 47.0965C31.598 46.909 38.4336 42.1316 37.8697 33.5591C37.3398 25.5153 30.5042 21.8253 24.5316 21.8666C17.59 21.9191 11.5719 26.6853 11.5719 34.5341Z" fill="#F79429"/>
<path d="M24.9555 45.7391C24.8608 45.7391 24.7624 45.7391 24.6678 45.7353C21.8291 45.6416 19.0245 44.4566 16.973 42.4879C14.7778 40.3804 13.5741 37.5304 13.5893 34.4666C13.6233 26.9854 20.2243 23.5166 24.7019 23.5166H24.7397C30.807 23.5429 35.7879 28.2154 35.928 34.5491C35.9885 37.3691 35.0802 40.1741 32.7941 42.4016C30.6594 44.4716 27.5708 45.7391 24.9555 45.7391ZM24.6943 24.7616C20.6785 24.7616 14.7399 28.0166 14.7248 34.4666C14.7134 39.2891 18.4832 44.2466 24.7624 44.4566C27.1545 44.5316 29.8532 43.6541 31.8403 41.7191C33.9068 39.7054 34.8341 37.0804 34.7925 34.5679C34.7017 29.1191 30.2052 24.7841 24.7473 24.7616C24.7359 24.7541 24.7056 24.7616 24.6943 24.7616Z" fill="#D25116"/>
<path d="M22.465 23.0512C22.2038 22.695 19.5279 22.7962 16.6475 25.2525C13.7861 27.6937 13.3584 30.3937 13.8732 30.5362C14.4598 30.6975 15.1752 28.0875 17.6468 25.8937C19.9177 23.8875 22.9835 23.76 22.465 23.0512ZM33.9674 32.865C33.0552 32.9925 34.0015 35.7 31.8857 38.73C30.05 41.3587 27.9683 42.3112 28.2105 42.8887C28.536 43.6612 31.8705 41.7375 33.4148 38.6025C34.8114 35.7637 34.6449 32.7675 33.9674 32.865Z" fill="#FEFFFA"/>
<path d="M10.1337 1.39516C9.8952 1.61266 19.0131 17.7002 19.0131 17.7002C19.0131 17.7002 20.5422 17.8952 23.9562 17.9252C27.3703 17.9552 29.0621 17.7302 29.0621 17.7302C29.0621 17.7302 21.9729 1.55641 21.549 1.39516C21.3409 1.31266 18.5324 1.28266 15.7884 1.25266C13.0405 1.21891 10.3608 1.18516 10.1337 1.39516Z" fill="#2E9DF4"/>
<path d="M28.8464 31.391C28.4073 27.6222 23.9789 27.3072 22.1432 28.7547C20.3568 30.1647 20.5271 32.1297 21.7799 32.3585C22.7678 32.5385 23.0251 31.7622 23.3128 31.406C23.9638 30.6072 25.0009 30.5322 25.6784 31.1735C26.4467 31.9047 25.9736 33.6522 24.8192 33.7235C23.96 33.776 23.5247 33.731 23.415 33.8772C23.2598 34.0835 23.2825 35.7072 23.4415 35.8872C23.6232 36.0935 24.3499 35.966 24.9744 35.9885C25.8336 36.0222 26.7457 37.2822 26.1439 38.2272C25.5194 39.206 23.8578 38.7672 23.2598 38.1747C22.4688 37.391 21.6777 37.841 21.4128 38.1485C20.9964 38.636 20.5536 39.746 22.0903 40.826C23.6232 41.906 28.2748 42.1122 29.2135 38.7672C30.0311 35.846 28.1234 34.646 28.1234 34.646C28.1234 34.646 29.0962 33.5397 28.8464 31.391Z" fill="#D25116"/>
</svg>
