<svg width="65" height="64" viewBox="0 0 65 64" fill="none" xmlns="http://www.w3.org/2000/svg">
<ellipse cx="32.2972" cy="32" rx="32.1981" ry="32" fill="#D9D9D9"/>
<path d="M40.9756 16.9532C38.6452 14.2784 36.0224 11.8698 33.1556 9.77194C32.9018 9.59526 32.5995 9.50049 32.2897 9.50049C31.9798 9.50049 31.6775 9.59526 31.4237 9.77194C28.5622 11.8707 25.9445 14.2792 23.6188 16.9532C18.4325 22.8726 15.695 29.1126 15.695 35.0001C15.695 39.3761 17.4442 43.573 20.5577 46.6673C23.6712 49.7617 27.894 51.5001 32.2972 51.5001C36.7004 51.5001 40.9232 49.7617 44.0367 46.6673C47.1502 43.573 48.8994 39.3761 48.8994 35.0001C48.8994 29.1126 46.1619 22.8726 40.9756 16.9532ZM42.8339 36.7513C42.4426 38.9239 41.3908 40.9251 39.8203 42.4856C38.2498 44.0461 36.236 45.091 34.0499 45.4794C33.9693 45.4921 33.888 45.499 33.8065 45.5001C33.4279 45.5 33.0632 45.3585 32.7846 45.1036C32.5061 44.8488 32.3341 44.4992 32.3028 44.1242C32.2714 43.7493 32.383 43.3763 32.6154 43.0793C32.8478 42.7822 33.1841 42.5829 33.5575 42.5207C36.6836 41.9976 39.3361 39.3613 39.8663 36.2488C39.9333 35.8565 40.1545 35.5066 40.481 35.2763C40.8076 35.046 41.2128 34.9541 41.6076 35.0207C42.0024 35.0873 42.3544 35.3071 42.5861 35.6317C42.8179 35.9562 42.9104 36.359 42.8434 36.7513H42.8339Z" fill="#878787"/>
</svg>
