<svg width="65" height="64" viewBox="0 0 65 64" fill="none" xmlns="http://www.w3.org/2000/svg">
<path d="M62.6954 32C62.6954 48.5511 49.148 62 32.3973 62C15.6465 62 2.09912 48.5511 2.09912 32C2.09912 15.4489 15.6465 2 32.3973 2C49.148 2 62.6954 15.4489 62.6954 32Z" fill="#D9D9D9" stroke="#BEBEBE" stroke-width="4"/>
<path d="M46 16C42.58 16 40.5 16.66 39.3 17.22C37.76 16.46 36 16 34 16C32 16 30.24 16.46 28.7 17.22C27.5 16.66 25.42 16 22 16C16 16 12 32 12 36C12 37.66 14.64 39.18 18.28 39.8C19.56 44.28 25.6 47.7 33 48V39.44C31.82 38.7 30 37.36 30 36C30 34 34 34 34 34C34 34 38 34 38 36C38 37.36 36.18 38.7 35 39.44V48C42.4 47.7 48.44 44.28 49.72 39.8C53.36 39.18 56 37.66 56 36C56 32 52 16 46 16ZM18.3 35.74C17.3 35.5 16.52 35.22 16 35C16.5 29.46 20.4 20.8 22.1 20C23.18 20 24 20.12 24.74 20.22C20.54 24.84 18.88 32.08 18.3 35.74ZM28 32C27.4696 32 26.9609 31.7893 26.5858 31.4142C26.2107 31.0391 26 30.5304 26 30C26 28.92 26.9 28 28 28C28.5304 28 29.0391 28.2107 29.4142 28.5858C29.7893 28.9609 30 29.4696 30 30C30 31.12 29.1 32 28 32ZM40 32C39.4696 32 38.9609 31.7893 38.5858 31.4142C38.2107 31.0391 38 30.5304 38 30C38 28.92 38.9 28 40 28C40.5304 28 41.0391 28.2107 41.4142 28.5858C41.7893 28.9609 42 29.4696 42 30C42 31.12 41.1 32 40 32ZM49.7 35.74C49.12 32.08 47.46 24.84 43.26 20.22C44 20.12 44.82 20 45.9 20C47.6 20.8 51.5 29.46 52 35C51.5 35.22 50.72 35.5 49.7 35.74Z" fill="#878787"/>
</svg>
