<svg width="65" height="64" viewBox="0 0 65 64" fill="none" xmlns="http://www.w3.org/2000/svg">
<path d="M62.6954 32C62.6954 48.5511 49.148 62 32.3973 62C15.6465 62 2.09912 48.5511 2.09912 32C2.09912 15.4489 15.6465 2 32.3973 2C49.148 2 62.6954 15.4489 62.6954 32Z" fill="#D9D9D9" stroke="#BEBEBE" stroke-width="4"/>
<path fill-rule="evenodd" clip-rule="evenodd" d="M32.5001 19.812C29.5401 19.812 29.2441 20.126 27.7121 20.126C26.4361 20.126 22.6041 17 20.6901 17C18.7761 17 16.5401 18.126 16.5401 21.376V25.126C16.5441 26.11 16.9001 29.126 18.3001 28.32C16.6461 30.276 16.4801 32.558 16.5021 34.766C16.0561 34.894 15.6021 35.04 15.1601 35.19C13.7921 35.658 12.3401 36.254 11.6861 36.678C11.3519 36.8939 11.1172 37.2337 11.0335 37.6226C10.9499 38.0116 11.0242 38.4178 11.2401 38.752C11.456 39.0862 11.7958 39.3209 12.1847 39.4045C12.5737 39.4882 12.9799 39.4139 13.3141 39.198C13.6261 38.996 14.7561 38.498 16.1301 38.028L16.5861 37.878C16.6781 38.744 16.9081 39.538 17.2501 40.258L17.2021 40.284C16.3821 40.716 15.6221 41.214 15.1381 41.53L14.9121 41.678C14.5779 41.8939 14.3432 42.2337 14.2595 42.6226C14.1759 43.0116 14.2502 43.4178 14.4661 43.752C14.682 44.0862 15.0218 44.3209 15.4107 44.4045C15.7997 44.4882 16.2059 44.4139 16.5401 44.198L16.8021 44.026C17.2921 43.706 17.9201 43.296 18.6041 42.936C18.7641 42.8507 18.9181 42.7733 19.0661 42.704C22.5261 45.95 28.7401 47 32.5001 47C36.2601 47 42.4741 45.95 45.9341 42.704C46.0807 42.7733 46.2347 42.8507 46.3961 42.936C47.0801 43.296 47.7081 43.706 48.1981 44.026L48.4601 44.198C48.7942 44.4139 49.2005 44.4882 49.5894 44.4045C49.9784 44.3209 50.3182 44.0862 50.5341 43.752C50.75 43.4178 50.8243 43.0116 50.7406 42.6226C50.657 42.2337 50.4222 41.8939 50.0881 41.678L49.8621 41.53C49.1937 41.083 48.505 40.6672 47.7981 40.284L47.7501 40.258C48.0921 39.538 48.3221 38.744 48.4141 37.878L48.8701 38.028C50.2441 38.498 51.3741 38.996 51.6881 39.198C52.0221 39.4018 52.4225 39.467 52.8039 39.3797C53.1853 39.2924 53.5175 39.0595 53.7297 38.7307C53.9418 38.402 54.0171 38.0033 53.9395 37.6198C53.8618 37.2363 53.6374 36.8984 53.3141 36.678C52.6601 36.254 51.2081 35.658 49.8421 35.19C49.3973 35.0381 48.9491 34.8961 48.4981 34.764C48.5221 32.556 48.3541 30.276 46.6981 28.32C48.0981 29.126 48.4581 26.11 48.4601 25.124V21.376C48.4601 18.126 46.2261 17 44.3101 17C42.3961 17 38.5641 20.126 37.2901 20.126C35.7561 20.126 35.4601 19.812 32.5001 19.812ZM31.1501 38.2C31.5541 38.062 32.0321 38 32.5001 38C32.9681 38 33.4461 38.062 33.8521 38.2C34.0521 38.268 34.2921 38.376 34.5081 38.548C34.6561 38.6598 34.7771 38.8033 34.8622 38.9681C34.9474 39.1329 34.9945 39.3146 35.0001 39.5C35.0001 39.96 34.7221 40.28 34.5081 40.452C34.2941 40.624 34.0501 40.732 33.8521 40.8C33.4461 40.938 32.9681 41 32.5001 41C32.0321 41 31.5541 40.938 31.1501 40.8C30.9126 40.7222 30.69 40.6045 30.4921 40.452C30.3441 40.3402 30.2231 40.1966 30.1379 40.0319C30.0528 39.8671 30.0057 39.6854 30.0001 39.5C30.0001 39.04 30.2781 38.72 30.4921 38.548C30.7061 38.376 30.9521 38.268 31.1501 38.2ZM36.8401 32C37.1141 31.544 37.6521 31 38.4601 31C39.2681 31 39.8081 31.544 40.0801 32C40.3641 32.478 40.5001 33.054 40.5001 33.626C40.5001 34.198 40.3641 34.772 40.0801 35.248C39.8081 35.706 39.2681 36.25 38.4601 36.25C37.6521 36.25 37.1141 35.706 36.8401 35.25C36.5582 34.7556 36.4132 34.195 36.4201 33.626C36.4201 33.054 36.5561 32.478 36.8401 32.002M24.9201 32.002C25.1941 31.546 25.7321 31.002 26.5401 31.002C27.3481 31.002 27.8881 31.546 28.1601 32.002C28.4441 32.48 28.5801 33.056 28.5801 33.628C28.5801 34.2 28.4441 34.774 28.1601 35.25C27.8881 35.708 27.3481 36.252 26.5401 36.252C25.7321 36.252 25.1941 35.708 24.9201 35.252C24.6382 34.7576 24.4932 34.1971 24.5001 33.628C24.5001 33.056 24.6361 32.478 24.9201 32.002Z" fill="#878787"/>
</svg>
