<svg width="65" height="64" viewBox="0 0 65 64" fill="none" xmlns="http://www.w3.org/2000/svg">
<ellipse cx="32.2972" cy="32" rx="32.1981" ry="32" fill="#D9D9D9"/>
<path d="M38.3344 12C38.8473 12.0006 39.3406 12.1958 39.7136 12.5457C40.0866 12.8956 40.311 13.3739 40.3411 13.8828C40.3711 14.3917 40.2045 14.8928 39.8753 15.2837C39.5461 15.6746 39.0791 15.9258 38.5698 15.986L38.3344 16C36.9398 16 35.6579 17.388 34.9314 19.104C36.1729 18.4761 37.5299 18.1059 38.92 18.016L39.4533 18C45.4542 18 50.4087 24.106 50.4087 30.64C50.4087 37.734 49.1892 42.364 45.5327 47.796C42.1277 52.298 37.298 53.302 32.6333 50.264C32.5386 50.2039 32.4294 50.1703 32.3171 50.1668C32.2048 50.1633 32.0937 50.1899 31.9954 50.244C27.2964 53.3 22.4667 52.298 18.9954 47.704C15.4073 42.368 14.1858 37.736 14.1858 30.64L14.1938 30.196C14.4111 23.834 19.2771 18 25.1412 18C27.0328 18 28.8681 18.582 30.5505 19.584C31.3937 15.684 34.209 12 38.3344 12ZM24.1793 24.308C21.4424 26.024 20.2229 28.428 20.2229 32C20.2229 32.5304 20.4349 33.0391 20.8123 33.4142C21.1897 33.7893 21.7016 34 22.2353 34C22.769 34 23.2809 33.7893 23.6583 33.4142C24.0357 33.0391 24.2477 32.5304 24.2477 32C24.2477 29.75 24.8111 28.644 26.3285 27.692C26.78 27.4087 27.0998 26.9588 27.2176 26.4412C27.3353 25.9236 27.2414 25.3807 26.9563 24.932C26.6713 24.4833 26.2186 24.1654 25.6978 24.0484C25.177 23.9314 24.6308 24.0247 24.1793 24.308Z" fill="#878787"/>
</svg>
